Roman_opsz5.ufo
<glyph name="exclam" format="2">
  <advance width="402"/>
  <unicode hex="0021"/>
  <outline>
    <contour>
      <point x="262" y="658" type="line"/>
      <point x="262" y="695"/>
      <point x="230" y="716"/>
      <point x="201" y="716" type="curve" smooth="yes"/>
      <point x="172" y="716"/>
      <point x="140" y="695"/>
      <point x="140" y="658" type="curve" smooth="yes"/>
      <point x="140" y="654"/>
      <point x="141" y="641"/>
      <point x="142" y="632" type="curve" smooth="yes"/>
      <point x="179" y="222" type="line" smooth="yes"/>
      <point x="180" y="206"/>
      <point x="181" y="198"/>
      <point x="201" y="198" type="curve" smooth="yes"/>
      <point x="221" y="198"/>
      <point x="222" y="206"/>
      <point x="223" y="222" type="curve" smooth="yes"/>
    </contour>
    <contour>
      <point x="262" y="61" type="curve" smooth="yes"/>
      <point x="262" y="95"/>
      <point x="235" y="122"/>
      <point x="201" y="122" type="curve" smooth="yes"/>
      <point x="168" y="122"/>
      <point x="140" y="95"/>
      <point x="140" y="61" type="curve" smooth="yes"/>
      <point x="140" y="27"/>
      <point x="167" y="0"/>
      <point x="201" y="0" type="curve" smooth="yes"/>
      <point x="234" y="0"/>
      <point x="262" y="27"/>
    </contour>
  </outline>
</glyph>
<glyph name="quotesingle" format="2">
  <advance width="402"/>
  <unicode hex="0027"/>
  <outline>
    <contour>
      <point x="255" y="658" type="line"/>
      <point x="255" y="684"/>
      <point x="237" y="709"/>
      <point x="201" y="709" type="curve" smooth="yes"/>
      <point x="165" y="709"/>
      <point x="147" y="684"/>
      <point x="147" y="658" type="curve" smooth="yes"/>
      <point x="147" y="654"/>
      <point x="147" y="652"/>
      <point x="149" y="640" type="curve" smooth="yes"/>
      <point x="184" y="353" type="line"/>
      <point x="218" y="353" type="line"/>
    </contour>
  </outline>
</glyph>
<glyph name="parenleft" format="2">
  <advance width="541"/>
  <unicode hex="0028"/>
  <outline>
    <contour>
      <point x="441" y="726" type="curve"/>
      <point x="441" y="727"/>
      <point x="444" y="731"/>
      <point x="444" y="736" type="curve" smooth="yes"/>
      <point x="444" y="740"/>
      <point x="442" y="750"/>
      <point x="427" y="750" type="curve" smooth="yes"/>
      <point x="407" y="750"/>
      <point x="150" y="590"/>
      <point x="150" y="250" type="curve" smooth="yes"/>
      <point x="150" y="-89"/>
      <point x="407" y="-250"/>
      <point x="427" y="-250" type="curve" smooth="yes"/>
      <point x="442" y="-250"/>
      <point x="444" y="-240"/>
      <point x="444" y="-236" type="curve" smooth="yes"/>
      <point x="444" y="-229"/>
      <point x="440" y="-226"/>
      <point x="436" y="-223" type="curve" smooth="yes"/>
      <point x="259" y="-82"/>
      <point x="227" y="121"/>
      <point x="227" y="250" type="curve" smooth="yes"/>
      <point x="227" y="495"/>
      <point x="340" y="656"/>
    </contour>
  </outline>
</glyph>
<glyph name="plus" format="2">
  <advance width="1027"/>
  <unicode hex="002B"/>
  <outline>
    <contour>
      <point x="514" y="-167" type="curve" smooth="yes"/>
      <point x="542" y="-167"/>
      <point x="542" y="-140"/>
      <point x="542" y="-126" type="curve" smooth="yes"/>
      <point x="542" y="222" type="line"/>
      <point x="890" y="222" type="line" smooth="yes"/>
      <point x="903" y="222"/>
      <point x="930" y="222"/>
      <point x="930" y="250" type="curve" smooth="yes"/>
      <point x="930" y="278"/>
      <point x="903" y="278"/>
      <point x="890" y="278" type="curve" smooth="yes"/>
      <point x="542" y="278" type="line"/>
      <point x="542" y="626" type="line" smooth="yes"/>
      <point x="542" y="640"/>
      <point x="542" y="667"/>
      <point x="514" y="667" type="curve" smooth="yes"/>
      <point x="486" y="667"/>
      <point x="486" y="640"/>
      <point x="486" y="626" type="curve" smooth="yes"/>
      <point x="486" y="278" type="line"/>
      <point x="137" y="278" type="line" smooth="yes"/>
      <point x="124" y="278"/>
      <point x="97" y="278"/>
      <point x="97" y="250" type="curve" smooth="yes"/>
      <point x="97" y="222"/>
      <point x="124" y="222"/>
      <point x="137" y="222" type="curve" smooth="yes"/>
      <point x="486" y="222" type="line"/>
      <point x="486" y="-126" type="line" smooth="yes"/>
      <point x="486" y="-140"/>
      <point x="486" y="-167"/>
    </contour>
  </outline>
</glyph>
<glyph name="hyphen" format="2">
  <advance width="472"/>
  <unicode hex="002D"/>
  <outline>
    <contour>
      <point x="374" y="177" type="line"/>
      <point x="374" y="254" type="line"/>
      <point x="42" y="254" type="line"/>
      <point x="42" y="177" type="line"/>
    </contour>
  </outline>
</glyph>
<glyph name="slash" format="2">
  <advance width="680"/>
  <unicode hex="002F"/>
  <outline>
    <contour>
      <point x="576" y="702" type="line" smooth="yes"/>
      <point x="583" y="716"/>
      <point x="583" y="718"/>
      <point x="583" y="722" type="curve" smooth="yes"/>
      <point x="583" y="737"/>
      <point x="571" y="750"/>
      <point x="555" y="750" type="curve" smooth="yes"/>
      <point x="545" y="750"/>
      <point x="535" y="746"/>
      <point x="526" y="727" type="curve" smooth="yes"/>
      <point x="104" y="-202" type="line" smooth="yes"/>
      <point x="97" y="-216"/>
      <point x="97" y="-218"/>
      <point x="97" y="-222" type="curve" smooth="yes"/>
      <point x="97" y="-237"/>
      <point x="109" y="-250"/>
      <point x="125" y="-250" type="curve" smooth="yes"/>
      <point x="135" y="-250"/>
      <point x="145" y="-246"/>
      <point x="154" y="-227" type="curve" smooth="yes"/>
    </contour>
  </outline>
</glyph>
<glyph name="zero" format="2">
  <advance width="680"/>
  <unicode hex="0030"/>
  <outline>
    <contour>
      <point x="601" y="320" type="curve" smooth="yes"/>
      <point x="601" y="392"/>
      <point x="601" y="666"/>
      <point x="340" y="666" type="curve" smooth="yes"/>
      <point x="79" y="666"/>
      <point x="79" y="392"/>
      <point x="79" y="320" type="curve" smooth="yes"/>
      <point x="79" y="247"/>
      <point x="79" y="-22"/>
      <point x="340" y="-22" type="curve" smooth="yes"/>
      <point x="601" y="-22"/>
      <point x="601" y="247"/>
    </contour>
    <contour>
      <point x="340" y="11" type="curve" smooth="yes"/>
      <point x="303" y="11"/>
      <point x="219" y="24"/>
      <point x="194" y="125" type="curve" smooth="yes"/>
      <point x="180" y="179"/>
      <point x="179" y="250"/>
      <point x="179" y="332" type="curve" smooth="yes"/>
      <point x="179" y="406"/>
      <point x="179" y="475"/>
      <point x="195" y="532" type="curve" smooth="yes"/>
      <point x="220" y="616"/>
      <point x="297" y="633"/>
      <point x="340" y="633" type="curve" smooth="yes"/>
      <point x="414" y="633"/>
      <point x="467" y="595"/>
      <point x="487" y="525" type="curve" smooth="yes"/>
      <point x="501" y="474"/>
      <point x="501" y="391"/>
      <point x="501" y="332" type="curve" smooth="yes"/>
      <point x="501" y="264"/>
      <point x="501" y="183"/>
      <point x="486" y="123" type="curve" smooth="yes"/>
      <point x="460" y="26"/>
      <point x="380" y="11"/>
    </contour>
  </outline>
</glyph>
<glyph name="two" format="2">
  <advance width="680"/>
  <unicode hex="0032"/>
  <outline>
    <contour>
      <point x="91" y="0" type="curve"/>
      <point x="556" y="0" type="line"/>
      <point x="589" y="193" type="line"/>
      <point x="547" y="193" type="line"/>
      <point x="544" y="174"/>
      <point x="534" y="112"/>
      <point x="518" y="102" type="curve"/>
      <point x="510" y="96"/>
      <point x="426" y="96"/>
      <point x="411" y="96" type="curve" smooth="yes"/>
      <point x="215" y="96" type="line"/>
      <point x="415" y="241" type="line" smooth="yes"/>
      <point x="508" y="309"/>
      <point x="589" y="360"/>
      <point x="589" y="467" type="curve" smooth="yes"/>
      <point x="589" y="595"/>
      <point x="468" y="666"/>
      <point x="325" y="666" type="curve" smooth="yes"/>
      <point x="190" y="666"/>
      <point x="91" y="588"/>
      <point x="91" y="490" type="curve" smooth="yes"/>
      <point x="91" y="438"/>
      <point x="135" y="429"/>
      <point x="149" y="429" type="curve" smooth="yes"/>
      <point x="176" y="429"/>
      <point x="208" y="447"/>
      <point x="208" y="488" type="curve" smooth="yes"/>
      <point x="208" y="524"/>
      <point x="182" y="544"/>
      <point x="151" y="547" type="curve"/>
      <point x="179" y="592"/>
      <point x="237" y="622"/>
      <point x="304" y="622" type="curve" smooth="yes"/>
      <point x="401" y="622"/>
      <point x="482" y="564"/>
      <point x="482" y="466" type="curve" smooth="yes"/>
      <point x="482" y="382"/>
      <point x="424" y="318"/>
      <point x="347" y="253" type="curve" smooth="yes"/>
      <point x="97" y="41" type="line" smooth="yes"/>
      <point x="92" y="37"/>
      <point x="91" y="36"/>
    </contour>
  </outline>
</glyph>
<glyph name="four" format="2">
  <advance width="680"/>
  <unicode hex="0034"/>
  <outline>
    <contour>
      <point x="617" y="163" type="line"/>
      <point x="617" y="207" type="line"/>
      <point x="492" y="207" type="line"/>
      <point x="492" y="647" type="line" smooth="yes"/>
      <point x="492" y="671"/>
      <point x="491" y="677"/>
      <point x="465" y="677" type="curve" smooth="yes"/>
      <point x="445" y="677"/>
      <point x="444" y="676"/>
      <point x="433" y="662" type="curve" smooth="yes"/>
      <point x="63" y="207" type="line"/>
      <point x="63" y="163" type="line"/>
      <point x="396" y="163" type="line"/>
      <point x="396" y="85" type="line" smooth="yes"/>
      <point x="396" y="54"/>
      <point x="396" y="44"/>
      <point x="309" y="44" type="curve" smooth="yes"/>
      <point x="274" y="44" type="line"/>
      <point x="274" y="0" type="line"/>
      <point x="321" y="2"/>
      <point x="386" y="4"/>
      <point x="444" y="4" type="curve" smooth="yes"/>
      <point x="502" y="4"/>
      <point x="566" y="2"/>
      <point x="614" y="0" type="curve"/>
      <point x="614" y="44" type="line"/>
      <point x="579" y="44" type="line" smooth="yes"/>
      <point x="492" y="44"/>
      <point x="492" y="54"/>
      <point x="492" y="85" type="curve" smooth="yes"/>
      <point x="492" y="163" type="line"/>
    </contour>
    <contour>
      <point x="404" y="569" type="line"/>
      <point x="404" y="207" type="line"/>
      <point x="110" y="207" type="line"/>
    </contour>
  </outline>
</glyph>
<glyph name="eight" format="2">
  <advance width="680"/>
  <unicode hex="0038"/>
  <outline>
    <contour>
      <point x="429" y="361" type="curve"/>
      <point x="532" y="404"/>
      <point x="565" y="457"/>
      <point x="565" y="514" type="curve" smooth="yes"/>
      <point x="565" y="618"/>
      <point x="450" y="666"/>
      <point x="341" y="666" type="curve" smooth="yes"/>
      <point x="217" y="666"/>
      <point x="115" y="596"/>
      <point x="115" y="496" type="curve" smooth="yes"/>
      <point x="115" y="404"/>
      <point x="194" y="363"/>
      <point x="246" y="336" type="curve"/>
      <point x="140" y="295"/>
      <point x="80" y="236"/>
      <point x="80" y="154" type="curve" smooth="yes"/>
      <point x="80" y="34"/>
      <point x="213" y="-22"/>
      <point x="339" y="-22" type="curve" smooth="yes"/>
      <point x="479" y="-22"/>
      <point x="600" y="53"/>
      <point x="600" y="171" type="curve" smooth="yes"/>
      <point x="600" y="280"/>
      <point x="496" y="331"/>
    </contour>
    <contour>
      <point x="233" y="463" type="line" smooth="yes"/>
      <point x="190" y="485"/>
      <point x="177" y="511"/>
      <point x="177" y="535" type="curve" smooth="yes"/>
      <point x="177" y="599"/>
      <point x="259" y="628"/>
      <point x="339" y="628" type="curve" smooth="yes"/>
      <point x="419" y="628"/>
      <point x="503" y="589"/>
      <point x="503" y="513" type="curve" smooth="yes"/>
      <point x="503" y="425"/>
      <point x="389" y="384"/>
      <point x="388" y="384" type="curve" smooth="yes"/>
      <point x="387" y="384"/>
      <point x="386" y="384"/>
      <point x="377" y="389" type="curve" smooth="yes"/>
    </contour>
    <contour>
      <point x="289" y="314" type="curve"/>
      <point x="444" y="235" type="line" smooth="yes"/>
      <point x="480" y="216"/>
      <point x="531" y="189"/>
      <point x="531" y="135" type="curve" smooth="yes"/>
      <point x="531" y="54"/>
      <point x="430" y="19"/>
      <point x="341" y="19" type="curve" smooth="yes"/>
      <point x="250" y="19"/>
      <point x="149" y="64"/>
      <point x="149" y="155" type="curve" smooth="yes"/>
      <point x="149" y="254"/>
      <point x="257" y="300"/>
    </contour>
  </outline>
</glyph>
<glyph name="semicolon" format="2">
  <advance width="402"/>
  <unicode hex="003B"/>
  <outline>
    <contour>
      <point x="262" y="370" type="curve" smooth="yes"/>
      <point x="262" y="404"/>
      <point x="235" y="431"/>
      <point x="201" y="431" type="curve" smooth="yes"/>
      <point x="168" y="431"/>
      <point x="140" y="404"/>
      <point x="140" y="370" type="curve" smooth="yes"/>
      <point x="140" y="336"/>
      <point x="167" y="309"/>
      <point x="201" y="309" type="curve" smooth="yes"/>
      <point x="234" y="309"/>
      <point x="262" y="336"/>
    </contour>
    <contour>
      <point x="232" y="7" type="curve"/>
      <point x="229" y="-71"/>
      <point x="200" y="-122"/>
      <point x="151" y="-171" type="curve"/>
      <point x="151" y="-182"/>
      <point x="155" y="-194"/>
      <point x="168" y="-194" type="curve" smooth="yes"/>
      <point x="183" y="-194"/>
      <point x="265" y="-111"/>
      <point x="265" y="11" type="curve" smooth="yes"/>
      <point x="265" y="42"/>
      <point x="262" y="122"/>
      <point x="200" y="122" type="curve" smooth="yes"/>
      <point x="164" y="122"/>
      <point x="140" y="94"/>
      <point x="140" y="61" type="curve" smooth="yes"/>
      <point x="140" y="30"/>
      <point x="162" y="0"/>
      <point x="201" y="0" type="curve" smooth="yes"/>
      <point x="220" y="0"/>
      <point x="224" y="3"/>
    </contour>
  </outline>
</glyph>
<glyph name="greater" format="2">
  <advance width="1027"/>
  <unicode hex="003E"/>
  <outline>
    <contour>
      <point x="871" y="221" type="line" smooth="yes"/>
      <point x="881" y="226"/>
      <point x="895" y="232"/>
      <point x="895" y="250" type="curve" smooth="yes"/>
      <point x="895" y="265"/>
      <point x="885" y="273"/>
      <point x="872" y="279" type="curve" smooth="yes"/>
      <point x="180" y="594" type="line" smooth="yes"/>
      <point x="166" y="601"/>
      <point x="164" y="601"/>
      <point x="160" y="601" type="curve" smooth="yes"/>
      <point x="144" y="601"/>
      <point x="132" y="588"/>
      <point x="132" y="573" type="curve" smooth="yes"/>
      <point x="132" y="562"/>
      <point x="137" y="552"/>
      <point x="155" y="544" type="curve" smooth="yes"/>
      <point x="800" y="250" type="line"/>
      <point x="156" y="-44" type="line" smooth="yes"/>
      <point x="146" y="-49"/>
      <point x="132" y="-55"/>
      <point x="132" y="-73" type="curve" smooth="yes"/>
      <point x="132" y="-84"/>
      <point x="138" y="-101"/>
      <point x="166" y="-101" type="curve"/>
    </contour>
  </outline>
</glyph>
<glyph name="at" format="2">
  <advance width="1027"/>
  <unicode hex="0040"/>
  <outline>
    <contour>
      <point x="763" y="455" type="line" smooth="yes"/>
      <point x="763" y="482"/>
      <point x="762" y="484"/>
      <point x="733" y="484" type="curve" smooth="yes"/>
      <point x="691" y="484" type="line"/>
      <point x="645" y="539"/>
      <point x="582" y="568"/>
      <point x="512" y="568" type="curve" smooth="yes"/>
      <point x="377" y="568"/>
      <point x="264" y="469"/>
      <point x="264" y="347" type="curve" smooth="yes"/>
      <point x="264" y="224"/>
      <point x="377" y="126"/>
      <point x="512" y="126" type="curve" smooth="yes"/>
      <point x="612" y="126"/>
      <point x="670" y="187"/>
      <point x="676" y="193" type="curve"/>
      <point x="697" y="126"/>
      <point x="786" y="126"/>
      <point x="795" y="126" type="curve" smooth="yes"/>
      <point x="919" y="126"/>
      <point x="930" y="290"/>
      <point x="930" y="344" type="curve" smooth="yes"/>
      <point x="930" y="547"/>
      <point x="742" y="705"/>
      <point x="514" y="705" type="curve" smooth="yes"/>
      <point x="276" y="705"/>
      <point x="97" y="538"/>
      <point x="97" y="347" type="curve" smooth="yes"/>
      <point x="97" y="167"/>
      <point x="261" y="-11"/>
      <point x="520" y="-11" type="curve" smooth="yes"/>
      <point x="738" y="-11"/>
      <point x="911" y="56"/>
      <point x="920" y="60" type="curve"/>
      <point x="927" y="62"/>
      <point x="930" y="68"/>
      <point x="930" y="73" type="curve" smooth="yes"/>
      <point x="930" y="87"/>
      <point x="917" y="87"/>
      <point x="902" y="87" type="curve" smooth="yes"/>
      <point x="889" y="87" type="line" smooth="yes"/>
      <point x="874" y="87"/>
      <point x="872" y="87"/>
      <point x="849" y="79" type="curve" smooth="yes"/>
      <point x="721" y="35"/>
      <point x="607" y="22"/>
      <point x="519" y="22" type="curve" smooth="yes"/>
      <point x="288" y="22"/>
      <point x="139" y="183"/>
      <point x="139" y="347" type="curve" smooth="yes"/>
      <point x="139" y="522"/>
      <point x="302" y="672"/>
      <point x="513" y="672" type="curve" smooth="yes"/>
      <point x="715" y="672"/>
      <point x="888" y="533"/>
      <point x="888" y="342" type="curve" smooth="yes"/>
      <point x="888" y="316"/>
      <point x="888" y="159"/>
      <point x="802" y="159" type="curve" smooth="yes"/>
      <point x="763" y="159"/>
      <point x="763" y="209"/>
      <point x="763" y="221" type="curve" smooth="yes"/>
    </contour>
    <contour>
      <point x="674" y="254" type="line"/>
      <point x="632" y="182"/>
      <point x="564" y="159"/>
      <point x="515" y="159" type="curve" smooth="yes"/>
      <point x="424" y="159"/>
      <point x="353" y="244"/>
      <point x="353" y="347" type="curve" smooth="yes"/>
      <point x="353" y="450"/>
      <point x="424" y="535"/>
      <point x="515" y="535" type="curve" smooth="yes"/>
      <point x="564" y="535"/>
      <point x="632" y="511"/>
      <point x="674" y="440" type="curve"/>
    </contour>
  </outline>
</glyph>
<glyph name="C" format="2">
  <advance width="958"/>
  <unicode hex="0043"/>
  <outline>
    <contour>
      <point x="860" y="677" type="line" smooth="yes"/>
      <point x="860" y="694"/>
      <point x="860" y="705"/>
      <point x="844" y="705" type="curve" smooth="yes"/>
      <point x="834" y="705"/>
      <point x="831" y="701"/>
      <point x="825" y="693" type="curve" smooth="yes"/>
      <point x="766" y="616" type="line"/>
      <point x="705" y="668"/>
      <point x="628" y="705"/>
      <point x="529" y="705" type="curve" smooth="yes"/>
      <point x="287" y="705"/>
      <point x="97" y="538"/>
      <point x="97" y="342" type="curve" smooth="yes"/>
      <point x="97" y="144"/>
      <point x="287" y="-22"/>
      <point x="530" y="-22" type="curve" smooth="yes"/>
      <point x="723" y="-22"/>
      <point x="860" y="101"/>
      <point x="860" y="234" type="curve" smooth="yes"/>
      <point x="860" y="250"/>
      <point x="856" y="255"/>
      <point x="839" y="255" type="curve" smooth="yes"/>
      <point x="828" y="255"/>
      <point x="819" y="255"/>
      <point x="818" y="238" type="curve" smooth="yes"/>
      <point x="810" y="86"/>
      <point x="665" y="22"/>
      <point x="548" y="22" type="curve" smooth="yes"/>
      <point x="406" y="22"/>
      <point x="214" y="100"/>
      <point x="214" y="342" type="curve" smooth="yes"/>
      <point x="214" y="580"/>
      <point x="402" y="661"/>
      <point x="547" y="661" type="curve" smooth="yes"/>
      <point x="637" y="661"/>
      <point x="784" y="613"/>
      <point x="816" y="427" type="curve" smooth="yes"/>
      <point x="818" y="415"/>
      <point x="830" y="415"/>
      <point x="838" y="415" type="curve" smooth="yes"/>
      <point x="860" y="415"/>
      <point x="860" y="422"/>
      <point x="860" y="443" type="curve" smooth="yes"/>
    </contour>
  </outline>
</glyph>
<glyph name="G" format="2">
  <advance width="1033"/>
  <unicode hex="0047"/>
  <outline>
    <contour>
      <point x="97" y="342" type="curve" smooth="yes"/>
      <point x="97" y="153"/>
      <point x="275" y="-22"/>
      <point x="534" y="-22" type="curve" smooth="yes"/>
      <point x="571" y="-22"/>
      <point x="624" y="-20"/>
      <point x="675" y="-6" type="curve" smooth="yes"/>
      <point x="749" y="14"/>
      <point x="775" y="50"/>
      <point x="778" y="55" type="curve"/>
      <point x="802" y="24"/>
      <point x="837" y="0"/>
      <point x="845" y="0" type="curve" smooth="yes"/>
      <point x="859" y="0"/>
      <point x="859" y="13"/>
      <point x="859" y="28" type="curve" smooth="yes"/>
      <point x="859" y="194" type="line" smooth="yes"/>
      <point x="859" y="225"/>
      <point x="859" y="234"/>
      <point x="926" y="234" type="curve" smooth="yes"/>
      <point x="946" y="234" type="line"/>
      <point x="946" y="278" type="line"/>
      <point x="887" y="275"/>
      <point x="824" y="274"/>
      <point x="795" y="274" type="curve" smooth="yes"/>
      <point x="741" y="274"/>
      <point x="647" y="274"/>
      <point x="597" y="278" type="curve"/>
      <point x="597" y="234" type="line"/>
      <point x="647" y="234" type="line" smooth="yes"/>
      <point x="753" y="234"/>
      <point x="753" y="223"/>
      <point x="753" y="192" type="curve" smooth="yes"/>
      <point x="753" y="130" type="line" smooth="yes"/>
      <point x="753" y="107"/>
      <point x="753" y="66"/>
      <point x="685" y="41" type="curve" smooth="yes"/>
      <point x="635" y="22"/>
      <point x="574" y="22"/>
      <point x="561" y="22" type="curve" smooth="yes"/>
      <point x="393" y="22"/>
      <point x="214" y="112"/>
      <point x="214" y="342" type="curve" smooth="yes"/>
      <point x="214" y="580"/>
      <point x="401" y="661"/>
      <point x="546" y="661" type="curve" smooth="yes"/>
      <point x="636" y="661"/>
      <point x="783" y="612"/>
      <point x="815" y="427" type="curve" smooth="yes"/>
      <point x="817" y="415"/>
      <point x="829" y="415"/>
      <point x="837" y="415" type="curve" smooth="yes"/>
      <point x="859" y="415"/>
      <point x="859" y="422"/>
      <point x="859" y="443" type="curve" smooth="yes"/>
      <point x="859" y="677" type="line" smooth="yes"/>
      <point x="859" y="694"/>
      <point x="859" y="705"/>
      <point x="843" y="705" type="curve" smooth="yes"/>
      <point x="833" y="705"/>
      <point x="830" y="701"/>
      <point x="824" y="693" type="curve" smooth="yes"/>
      <point x="765" y="616" type="line"/>
      <point x="718" y="655"/>
      <point x="645" y="705"/>
      <point x="528" y="705" type="curve" smooth="yes"/>
      <point x="287" y="705"/>
      <point x="97" y="538"/>
    </contour>
  </outline>
</glyph>
<glyph name="H" format="2">
  <advance width="980"/>
  <unicode hex="0048"/>
  <outline>
    <contour>
      <point x="83" y="0" type="line"/>
      <point x="128" y="2"/>
      <point x="190" y="4"/>
      <point x="247" y="4" type="curve" smooth="yes"/>
      <point x="304" y="4"/>
      <point x="366" y="2"/>
      <point x="411" y="0" type="curve"/>
      <point x="411" y="44" type="line"/>
      <point x="381" y="44" type="line" smooth="yes"/>
      <point x="300" y="44"/>
      <point x="300" y="54"/>
      <point x="300" y="85" type="curve" smooth="yes"/>
      <point x="300" y="333" type="line"/>
      <point x="680" y="333" type="line"/>
      <point x="680" y="85" type="line" smooth="yes"/>
      <point x="680" y="54"/>
      <point x="680" y="44"/>
      <point x="599" y="44" type="curve" smooth="yes"/>
      <point x="569" y="44" type="line"/>
      <point x="569" y="0" type="line"/>
      <point x="614" y="2"/>
      <point x="676" y="4"/>
      <point x="733" y="4" type="curve" smooth="yes"/>
      <point x="790" y="4"/>
      <point x="852" y="2"/>
      <point x="897" y="0" type="curve"/>
      <point x="897" y="44" type="line"/>
      <point x="867" y="44" type="line" smooth="yes"/>
      <point x="786" y="44"/>
      <point x="786" y="54"/>
      <point x="786" y="85" type="curve" smooth="yes"/>
      <point x="786" y="598" type="line" smooth="yes"/>
      <point x="786" y="629"/>
      <point x="786" y="639"/>
      <point x="867" y="639" type="curve" smooth="yes"/>
      <point x="897" y="639" type="line"/>
      <point x="897" y="683" type="line"/>
      <point x="852" y="681"/>
      <point x="790" y="679"/>
      <point x="733" y="679" type="curve" smooth="yes"/>
      <point x="676" y="679"/>
      <point x="614" y="681"/>
      <point x="569" y="683" type="curve"/>
      <point x="569" y="639" type="line"/>
      <point x="599" y="639" type="line" smooth="yes"/>
      <point x="680" y="639"/>
      <point x="680" y="629"/>
      <point x="680" y="598" type="curve" smooth="yes"/>
      <point x="680" y="377" type="line"/>
      <point x="300" y="377" type="line"/>
      <point x="300" y="598" type="line" smooth="yes"/>
      <point x="300" y="629"/>
      <point x="300" y="639"/>
      <point x="381" y="639" type="curve" smooth="yes"/>
      <point x="411" y="639" type="line"/>
      <point x="411" y="683" type="line"/>
      <point x="366" y="681"/>
      <point x="304" y="679"/>
      <point x="247" y="679" type="curve" smooth="yes"/>
      <point x="190" y="679"/>
      <point x="128" y="681"/>
      <point x="83" y="683" type="curve"/>
      <point x="83" y="639" type="line"/>
      <point x="113" y="639" type="line" smooth="yes"/>
      <point x="194" y="639"/>
      <point x="194" y="629"/>
      <point x="194" y="598" type="curve" smooth="yes"/>
      <point x="194" y="85" type="line" smooth="yes"/>
      <point x="194" y="54"/>
      <point x="194" y="44"/>
      <point x="113" y="44" type="curve" smooth="yes"/>
      <point x="83" y="44" type="line"/>
    </contour>
  </outline>
</glyph>
<glyph name="I" format="2">
  <advance width="494"/>
  <unicode hex="0049"/>
  <outline>
    <contour>
      <point x="300" y="598" type="line" smooth="yes"/>
      <point x="300" y="629"/>
      <point x="300" y="639"/>
      <point x="384" y="639" type="curve" smooth="yes"/>
      <point x="417" y="639" type="line"/>
      <point x="417" y="683" type="line"/>
      <point x="370" y="681"/>
      <point x="305" y="679"/>
      <point x="247" y="679" type="curve" smooth="yes"/>
      <point x="189" y="679"/>
      <point x="125" y="681"/>
      <point x="77" y="683" type="curve"/>
      <point x="77" y="639" type="line"/>
      <point x="110" y="639" type="line" smooth="yes"/>
      <point x="194" y="639"/>
      <point x="194" y="629"/>
      <point x="194" y="598" type="curve" smooth="yes"/>
      <point x="194" y="85" type="line" smooth="yes"/>
      <point x="194" y="54"/>
      <point x="194" y="44"/>
      <point x="110" y="44" type="curve" smooth="yes"/>
      <point x="77" y="44" type="line"/>
      <point x="77" y="0" type="line"/>
      <point x="124" y="2"/>
      <point x="189" y="4"/>
      <point x="247" y="4" type="curve" smooth="yes"/>
      <point x="305" y="4"/>
      <point x="369" y="2"/>
      <point x="417" y="0" type="curve"/>
      <point x="417" y="44" type="line"/>
      <point x="384" y="44" type="line" smooth="yes"/>
      <point x="300" y="44"/>
      <point x="300" y="54"/>
      <point x="300" y="85" type="curve" smooth="yes"/>
    </contour>
  </outline>
</glyph>
<glyph name="J" format="2">
  <advance width="691"/>
  <unicode hex="004A"/>
  <outline>
    <contour>
      <point x="513" y="599" type="line" smooth="yes"/>
      <point x="513" y="630"/>
      <point x="513" y="639"/>
      <point x="578" y="639" type="curve" smooth="yes"/>
      <point x="596" y="639" type="line"/>
      <point x="596" y="683" type="line"/>
      <point x="548" y="680"/>
      <point x="500" y="679"/>
      <point x="452" y="679" type="curve" smooth="yes"/>
      <point x="396" y="679"/>
      <point x="322" y="679"/>
      <point x="267" y="683" type="curve"/>
      <point x="267" y="639" type="line"/>
      <point x="311" y="639" type="line" smooth="yes"/>
      <point x="411" y="639"/>
      <point x="411" y="629"/>
      <point x="411" y="597" type="curve" smooth="yes"/>
      <point x="411" y="150" type="line" smooth="yes"/>
      <point x="411" y="57"/>
      <point x="347" y="11"/>
      <point x="288" y="11" type="curve" smooth="yes"/>
      <point x="269" y="11"/>
      <point x="205" y="15"/>
      <point x="168" y="53" type="curve"/>
      <point x="201" y="59"/>
      <point x="219" y="83"/>
      <point x="219" y="114" type="curve" smooth="yes"/>
      <point x="219" y="147"/>
      <point x="195" y="175"/>
      <point x="158" y="175" type="curve" smooth="yes"/>
      <point x="122" y="175"/>
      <point x="96" y="151"/>
      <point x="96" y="112" type="curve" smooth="yes"/>
      <point x="96" y="31"/>
      <point x="183" y="-22"/>
      <point x="290" y="-22" type="curve" smooth="yes"/>
      <point x="399" y="-22"/>
      <point x="513" y="39"/>
      <point x="513" y="150" type="curve" smooth="yes"/>
    </contour>
  </outline>
</glyph>
<glyph name="N" format="2">
  <advance width="980"/>
  <unicode hex="004E"/>
  <outline>
    <contour>
      <point x="194" y="111" type="line" smooth="yes"/>
      <point x="194" y="85"/>
      <point x="194" y="44"/>
      <point x="83" y="44" type="curve"/>
      <point x="83" y="0" type="line"/>
      <point x="128" y="3"/>
      <point x="172" y="4"/>
      <point x="217" y="4" type="curve" smooth="yes"/>
      <point x="245" y="4"/>
      <point x="310" y="3"/>
      <point x="351" y="0" type="curve"/>
      <point x="351" y="44" type="line"/>
      <point x="240" y="44"/>
      <point x="240" y="85"/>
      <point x="240" y="111" type="curve" smooth="yes"/>
      <point x="240" y="606" type="line"/>
      <point x="240.0" y="606.0"/>
      <point x="240.0" y="606.0"/>
      <point x="240" y="606" type="curve"/>
      <point x="738" y="12" type="line" smooth="yes"/>
      <point x="748" y="0"/>
      <point x="752" y="0"/>
      <point x="763" y="0" type="curve" smooth="yes"/>
      <point x="786" y="0"/>
      <point x="786" y="9"/>
      <point x="786" y="30" type="curve" smooth="yes"/>
      <point x="786" y="572" type="line" smooth="yes"/>
      <point x="786" y="598"/>
      <point x="786" y="639"/>
      <point x="897" y="639" type="curve"/>
      <point x="897" y="683" type="line"/>
      <point x="852" y="680"/>
      <point x="808" y="679"/>
      <point x="763" y="679" type="curve" smooth="yes"/>
      <point x="735" y="679"/>
      <point x="670" y="680"/>
      <point x="629" y="683" type="curve"/>
      <point x="629" y="639" type="line"/>
      <point x="740" y="639"/>
      <point x="740" y="598"/>
      <point x="740" y="572" type="curve" smooth="yes"/>
      <point x="740" y="157" type="line"/>
      <point x="309" y="671" type="line" smooth="yes"/>
      <point x="299" y="683"/>
      <point x="297" y="683"/>
      <point x="277" y="683" type="curve" smooth="yes"/>
      <point x="83" y="683" type="line"/>
      <point x="83" y="639" type="line"/>
      <point x="122" y="639" type="line" smooth="yes"/>
      <point x="134" y="639"/>
      <point x="180" y="638"/>
      <point x="190" y="635" type="curve"/>
      <point x="193" y="633"/>
      <point x="194" y="632"/>
      <point x="194" y="616" type="curve" smooth="yes"/>
    </contour>
  </outline>
</glyph>
<glyph name="O" format="2">
  <advance width="1027"/>
  <unicode hex="004F"/>
  <outline>
    <contour>
      <point x="930" y="339" type="curve" smooth="yes"/>
      <point x="930" y="536"/>
      <point x="749" y="705"/>
      <point x="514" y="705" type="curve" smooth="yes"/>
      <point x="276" y="705"/>
      <point x="97" y="534"/>
      <point x="97" y="339" type="curve" smooth="yes"/>
      <point x="97" y="143"/>
      <point x="280" y="-22"/>
      <point x="513" y="-22" type="curve" smooth="yes"/>
      <point x="750" y="-22"/>
      <point x="930" y="145"/>
    </contour>
    <contour>
      <point x="514" y="15" type="curve" smooth="yes"/>
      <point x="363" y="15"/>
      <point x="214" y="125"/>
      <point x="214" y="354" type="curve" smooth="yes"/>
      <point x="214" y="572"/>
      <point x="369" y="669"/>
      <point x="513" y="669" type="curve" smooth="yes"/>
      <point x="663" y="669"/>
      <point x="813" y="568"/>
      <point x="813" y="354" type="curve" smooth="yes"/>
      <point x="813" y="121"/>
      <point x="659" y="15"/>
    </contour>
  </outline>
</glyph>
<glyph name="P" format="2">
  <advance width="900"/>
  <unicode hex="0050"/>
  <outline>
    <contour>
      <point x="302" y="304" type="line"/>
      <point x="521" y="304" type="line" smooth="yes"/>
      <point x="655" y="304"/>
      <point x="802" y="380"/>
      <point x="802" y="491" type="curve" smooth="yes"/>
      <point x="802" y="596"/>
      <point x="670" y="683"/>
      <point x="511" y="683" type="curve" smooth="yes"/>
      <point x="85" y="683" type="line"/>
      <point x="85" y="639" type="line"/>
      <point x="115" y="639" type="line" smooth="yes"/>
      <point x="196" y="639"/>
      <point x="196" y="629"/>
      <point x="196" y="598" type="curve" smooth="yes"/>
      <point x="196" y="85" type="line" smooth="yes"/>
      <point x="196" y="54"/>
      <point x="196" y="44"/>
      <point x="115" y="44" type="curve" smooth="yes"/>
      <point x="85" y="44" type="line"/>
      <point x="85" y="0" type="line"/>
      <point x="130" y="2"/>
      <point x="192" y="4"/>
      <point x="249" y="4" type="curve" smooth="yes"/>
      <point x="306" y="4"/>
      <point x="368" y="2"/>
      <point x="413" y="0" type="curve"/>
      <point x="413" y="44" type="line"/>
      <point x="383" y="44" type="line" smooth="yes"/>
      <point x="302" y="44"/>
      <point x="302" y="54"/>
      <point x="302" y="85" type="curve" smooth="yes"/>
    </contour>
    <contour>
      <point x="487" y="639" type="line" smooth="yes"/>
      <point x="650" y="639"/>
      <point x="685" y="569"/>
      <point x="685" y="491" type="curve" smooth="yes"/>
      <point x="685" y="409"/>
      <point x="646" y="342"/>
      <point x="486" y="342" type="curve" smooth="yes"/>
      <point x="298" y="342" type="line"/>
      <point x="298" y="601" type="line" smooth="yes"/>
      <point x="298" y="632"/>
      <point x="298" y="639"/>
      <point x="347" y="639" type="curve" smooth="yes"/>
    </contour>
  </outline>
</glyph>
<glyph name="R" format="2">
  <advance width="969"/>
  <unicode hex="0052"/>
  <outline>
    <contour>
      <point x="196" y="85" type="line" smooth="yes"/>
      <point x="196" y="54"/>
      <point x="196" y="44"/>
      <point x="115" y="44" type="curve" smooth="yes"/>
      <point x="85" y="44" type="line"/>
      <point x="85" y="0" type="line"/>
      <point x="131" y="2"/>
      <point x="192" y="4"/>
      <point x="247" y="4" type="curve" smooth="yes"/>
      <point x="302" y="4"/>
      <point x="360" y="2"/>
      <point x="409" y="0" type="curve"/>
      <point x="409" y="44" type="line"/>
      <point x="379" y="44" type="line" smooth="yes"/>
      <point x="298" y="44"/>
      <point x="298" y="54"/>
      <point x="298" y="85" type="curve" smooth="yes"/>
      <point x="298" y="325" type="line"/>
      <point x="452" y="325" type="line" smooth="yes"/>
      <point x="506" y="325"/>
      <point x="553" y="311"/>
      <point x="584" y="285" type="curve" smooth="yes"/>
      <point x="621" y="255"/>
      <point x="621" y="231"/>
      <point x="621" y="172" type="curve" smooth="yes"/>
      <point x="621" y="95"/>
      <point x="621" y="56"/>
      <point x="674" y="16" type="curve" smooth="yes"/>
      <point x="712" y="-13"/>
      <point x="772" y="-22"/>
      <point x="815" y="-22" type="curve" smooth="yes"/>
      <point x="911" y="-22"/>
      <point x="937" y="60"/>
      <point x="937" y="93" type="curve" smooth="yes"/>
      <point x="937" y="112"/>
      <point x="927" y="114"/>
      <point x="916" y="114" type="curve" smooth="yes"/>
      <point x="900" y="114"/>
      <point x="896" y="108"/>
      <point x="895" y="94" type="curve" smooth="yes"/>
      <point x="891" y="37"/>
      <point x="854" y="11"/>
      <point x="820" y="11" type="curve" smooth="yes"/>
      <point x="752" y="11"/>
      <point x="743" y="87"/>
      <point x="735" y="151" type="curve" smooth="yes"/>
      <point x="732" y="178"/>
      <point x="727" y="218"/>
      <point x="724" y="231" type="curve" smooth="yes"/>
      <point x="709" y="290"/>
      <point x="657" y="325"/>
      <point x="597" y="341" type="curve"/>
      <point x="661" y="358"/>
      <point x="784" y="407"/>
      <point x="784" y="499" type="curve" smooth="yes"/>
      <point x="784" y="603"/>
      <point x="629" y="683"/>
      <point x="463" y="683" type="curve" smooth="yes"/>
      <point x="85" y="683" type="line"/>
      <point x="85" y="639" type="line"/>
      <point x="115" y="639" type="line" smooth="yes"/>
      <point x="196" y="639"/>
      <point x="196" y="629"/>
      <point x="196" y="598" type="curve" smooth="yes"/>
    </contour>
    <contour>
      <point x="298" y="358" type="line"/>
      <point x="298" y="601" type="line" smooth="yes"/>
      <point x="298" y="631"/>
      <point x="300" y="636"/>
      <point x="330" y="639" type="curve"/>
      <point x="401" y="639" type="line" smooth="yes"/>
      <point x="514" y="639"/>
      <point x="667" y="639"/>
      <point x="667" y="499" type="curve" smooth="yes"/>
      <point x="667" y="384"/>
      <point x="553" y="358"/>
      <point x="452" y="358" type="curve" smooth="yes"/>
    </contour>
  </outline>
</glyph>
<glyph name="Y" format="2">
  <advance width="980"/>
  <unicode hex="0059"/>
  <outline>
    <contour>
      <point x="784" y="580" type="line" smooth="yes"/>
      <point x="797" y="597"/>
      <point x="831" y="639"/>
      <point x="931" y="639" type="curve"/>
      <point x="931" y="683" type="line"/>
      <point x="896" y="680"/>
      <point x="855" y="679"/>
      <point x="820" y="679" type="curve" smooth="yes"/>
      <point x="780" y="679"/>
      <point x="723" y="681"/>
      <point x="689" y="683" type="curve"/>
      <point x="689" y="639" type="line"/>
      <point x="729" y="639"/>
      <point x="740" y="622"/>
      <point x="740" y="608" type="curve" smooth="yes"/>
      <point x="740" y="596"/>
      <point x="735" y="590"/>
      <point x="726" y="579" type="curve" smooth="yes"/>
      <point x="527" y="326" type="line"/>
      <point x="309" y="603" type="line"/>
      <point x="299" y="614"/>
      <point x="299" y="616"/>
      <point x="299" y="620" type="curve" smooth="yes"/>
      <point x="299" y="639"/>
      <point x="338" y="639"/>
      <point x="365" y="639" type="curve"/>
      <point x="365" y="683" type="line"/>
      <point x="326" y="682"/>
      <point x="253" y="679"/>
      <point x="197" y="679" type="curve" smooth="yes"/>
      <point x="157" y="679"/>
      <point x="101" y="680"/>
      <point x="49" y="683" type="curve"/>
      <point x="49" y="639" type="line"/>
      <point x="76" y="639" type="line" smooth="yes"/>
      <point x="145" y="639"/>
      <point x="157" y="629"/>
      <point x="174" y="608" type="curve" smooth="yes"/>
      <point x="439" y="273" type="line"/>
      <point x="439" y="85" type="line" smooth="yes"/>
      <point x="439" y="54"/>
      <point x="439" y="44"/>
      <point x="358" y="44" type="curve" smooth="yes"/>
      <point x="328" y="44" type="line"/>
      <point x="328" y="0" type="line"/>
      <point x="374" y="2"/>
      <point x="435" y="4"/>
      <point x="490" y="4" type="curve" smooth="yes"/>
      <point x="545" y="4"/>
      <point x="603" y="2"/>
      <point x="652" y="0" type="curve"/>
      <point x="652" y="44" type="line"/>
      <point x="622" y="44" type="line" smooth="yes"/>
      <point x="541" y="44"/>
      <point x="541" y="54"/>
      <point x="541" y="86" type="curve" smooth="yes"/>
      <point x="541" y="273" type="line"/>
    </contour>
  </outline>
</glyph>
<glyph name="a" format="2">
  <advance width="680"/>
  <unicode hex="0061"/>
  <outline>
    <contour>
      <point x="446" y="71" type="curve"/>
      <point x="450" y="36"/>
      <point x="473" y="-6"/>
      <point x="524" y="-6" type="curve" smooth="yes"/>
      <point x="531" y="-6"/>
      <point x="645" y="-6"/>
      <point x="645" y="90" type="curve" smooth="yes"/>
      <point x="645" y="145" type="line"/>
      <point x="603" y="145" type="line"/>
      <point x="603" y="92" type="line" smooth="yes"/>
      <point x="603" y="82"/>
      <point x="603" y="38"/>
      <point x="563" y="38" type="curve" smooth="yes"/>
      <point x="523" y="38"/>
      <point x="523" y="82"/>
      <point x="523" y="92" type="curve" smooth="yes"/>
      <point x="523" y="297" type="line" smooth="yes"/>
      <point x="523.0" y="345.0"/>
      <point x="497.75" y="382.75"/>
      <point x="457.0" y="408.5" type="curve" smooth="yes"/>
      <point x="416.25" y="434.25"/>
      <point x="360.0" y="448.0"/>
      <point x="298" y="448" type="curve" smooth="yes"/>
      <point x="237" y="448"/>
      <point x="121" y="445"/>
      <point x="121" y="360" type="curve" smooth="yes"/>
      <point x="121" y="323"/>
      <point x="149" y="306"/>
      <point x="174" y="306" type="curve" smooth="yes"/>
      <point x="201" y="306"/>
      <point x="227" y="325"/>
      <point x="227" y="359" type="curve" smooth="yes"/>
      <point x="227" y="383"/>
      <point x="213" y="398"/>
      <point x="204" y="404" type="curve"/>
      <point x="237" y="415"/>
      <point x="285" y="415"/>
      <point x="296" y="415" type="curve" smooth="yes"/>
      <point x="381" y="415"/>
      <point x="434" y="368"/>
      <point x="434" y="296" type="curve" smooth="yes"/>
      <point x="434" y="270" type="line"/>
      <point x="337" y="265"/>
      <point x="283" y="262"/>
      <point x="206" y="235" type="curve" smooth="yes"/>
      <point x="140" y="212"/>
      <point x="82" y="170"/>
      <point x="82" y="105" type="curve" smooth="yes"/>
      <point x="82" y="11"/>
      <point x="198" y="-11"/>
      <point x="278" y="-11" type="curve" smooth="yes"/>
      <point x="355" y="-11"/>
      <point x="415" y="20"/>
    </contour>
    <contour>
      <point x="434" y="142" type="line" smooth="yes"/>
      <point x="434" y="32"/>
      <point x="314" y="22"/>
      <point x="289" y="22" type="curve" smooth="yes"/>
      <point x="230" y="22"/>
      <point x="174" y="53"/>
      <point x="174" y="105" type="curve" smooth="yes"/>
      <point x="174" y="138"/>
      <point x="195" y="230"/>
      <point x="434" y="240" type="curve"/>
    </contour>
  </outline>
</glyph>
<glyph name="c" format="2">
  <advance width="611"/>
  <unicode hex="0063"/>
  <outline>
    <contour>
      <point x="172" y="217" type="curve" smooth="yes"/>
      <point x="172" y="336"/>
      <point x="238" y="412"/>
      <point x="349" y="412" type="curve" smooth="yes"/>
      <point x="386" y="412"/>
      <point x="414" y="412"/>
      <point x="449" y="403" type="curve"/>
      <point x="435" y="393"/>
      <point x="427" y="377"/>
      <point x="427" y="359" type="curve" smooth="yes"/>
      <point x="427" y="326"/>
      <point x="452" y="306"/>
      <point x="480" y="306" type="curve" smooth="yes"/>
      <point x="504" y="306"/>
      <point x="533" y="322"/>
      <point x="533" y="360" type="curve" smooth="yes"/>
      <point x="533" y="445"/>
      <point x="422" y="448"/>
      <point x="352" y="448" type="curve" smooth="yes"/>
      <point x="156" y="448"/>
      <point x="72" y="316"/>
      <point x="72" y="216" type="curve" smooth="yes"/>
      <point x="72" y="92"/>
      <point x="189" y="-11"/>
      <point x="340" y="-11" type="curve" smooth="yes"/>
      <point x="513" y="-11"/>
      <point x="547" y="111"/>
      <point x="547" y="120" type="curve" smooth="yes"/>
      <point x="547" y="134"/>
      <point x="532" y="134"/>
      <point x="526" y="134" type="curve" smooth="yes"/>
      <point x="510" y="134"/>
      <point x="509" y="131"/>
      <point x="504" y="119" type="curve" smooth="yes"/>
      <point x="470" y="36"/>
      <point x="397" y="25"/>
      <point x="353" y="25" type="curve" smooth="yes"/>
      <point x="267" y="25"/>
      <point x="172" y="83"/>
    </contour>
  </outline>
</glyph>
<glyph name="h" format="2">
  <advance width="750"/>
  <unicode hex="0068"/>
  <outline>
    <contour>
      <point x="600" y="302" type="line" smooth="yes"/>
      <point x="600" y="412"/>
      <point x="525" y="442"/>
      <point x="432" y="442" type="curve" smooth="yes"/>
      <point x="317" y="442"/>
      <point x="265" y="374"/>
      <point x="250" y="351" type="curve"/>
      <point x="250" y="694" type="line"/>
      <point x="82" y="683" type="line"/>
      <point x="82" y="639" type="line"/>
      <point x="156" y="639"/>
      <point x="165" y="632"/>
      <point x="165" y="583" type="curve" smooth="yes"/>
      <point x="165" y="84" type="line" smooth="yes"/>
      <point x="165" y="53"/>
      <point x="165" y="44"/>
      <point x="100" y="44" type="curve" smooth="yes"/>
      <point x="82" y="44" type="line"/>
      <point x="82" y="0" type="line"/>
      <point x="125" y="3"/>
      <point x="167" y="4"/>
      <point x="210" y="4" type="curve" smooth="yes"/>
      <point x="252" y="4"/>
      <point x="295" y="3"/>
      <point x="337" y="0" type="curve"/>
      <point x="337" y="44" type="line"/>
      <point x="319" y="44" type="line" smooth="yes"/>
      <point x="254" y="44"/>
      <point x="254" y="53"/>
      <point x="254" y="84" type="curve" smooth="yes"/>
      <point x="254" y="258" type="line" smooth="yes"/>
      <point x="254" y="371"/>
      <point x="358" y="409"/>
      <point x="420" y="409" type="curve" smooth="yes"/>
      <point x="494" y="409"/>
      <point x="511" y="367"/>
      <point x="511" y="303" type="curve" smooth="yes"/>
      <point x="511" y="84" type="line" smooth="yes"/>
      <point x="511" y="53"/>
      <point x="511" y="44"/>
      <point x="446" y="44" type="curve" smooth="yes"/>
      <point x="428" y="44" type="line"/>
      <point x="428" y="0" type="line"/>
      <point x="471" y="3"/>
      <point x="513" y="4"/>
      <point x="556" y="4" type="curve" smooth="yes"/>
      <point x="598" y="4"/>
      <point x="641" y="3"/>
      <point x="683" y="0" type="curve"/>
      <point x="683" y="44" type="line"/>
      <point x="665" y="44" type="line" smooth="yes"/>
      <point x="600" y="44"/>
      <point x="600" y="53"/>
      <point x="600" y="84" type="curve" smooth="yes"/>
    </contour>
  </outline>
</glyph>
<glyph name="j" format="2">
  <advance width="437"/>
  <unicode hex="006A"/>
  <outline>
    <contour>
      <point x="209" y="330" type="curve" smooth="yes"/>
      <point x="209" y="-44" type="line" smooth="yes"/>
      <point x="209" y="-105"/>
      <point x="186" y="-172"/>
      <point x="126" y="-172" type="curve" smooth="yes"/>
      <point x="113" y="-172"/>
      <point x="90" y="-169"/>
      <point x="72" y="-163" type="curve"/>
      <point x="77" y="-160"/>
      <point x="96" y="-146"/>
      <point x="96" y="-118" type="curve" smooth="yes"/>
      <point x="96" y="-86"/>
      <point x="73" y="-65"/>
      <point x="43" y="-65" type="curve" smooth="yes"/>
      <point x="14" y="-65"/>
      <point x="-10" y="-86"/>
      <point x="-10" y="-118" type="curve" smooth="yes"/>
      <point x="-10" y="-179"/>
      <point x="57" y="-205"/>
      <point x="127" y="-205" type="curve" smooth="yes"/>
      <point x="211" y="-205"/>
      <point x="294" y="-146"/>
      <point x="294" y="-43" type="curve" smooth="yes"/>
      <point x="294" y="442" type="line"/>
      <point x="117" y="431" type="line"/>
      <point x="117" y="387" type="line"/>
      <point x="199" y="387"/>
      <point x="209" y="380"/>
    </contour>
    <contour>
      <point x="294" y="616" type="curve" smooth="yes"/>
      <point x="294" y="650"/>
      <point x="267" y="677"/>
      <point x="233" y="677" type="curve" smooth="yes"/>
      <point x="200" y="677"/>
      <point x="172" y="650"/>
      <point x="172" y="616" type="curve" smooth="yes"/>
      <point x="172" y="582"/>
      <point x="199" y="555"/>
      <point x="233" y="555" type="curve" smooth="yes"/>
      <point x="266" y="555"/>
      <point x="294" y="582"/>
    </contour>
  </outline>
</glyph>
<glyph name="k" format="2">
  <advance width="715"/>
  <unicode hex="006B"/>
  <outline>
    <contour>
      <point x="76" y="0" type="line"/>
      <point x="115" y="3"/>
      <point x="160" y="4"/>
      <point x="199" y="4" type="curve" smooth="yes"/>
      <point x="239" y="4"/>
      <point x="284" y="3"/>
      <point x="323" y="0" type="curve"/>
      <point x="323" y="44" type="line"/>
      <point x="305" y="44" type="line" smooth="yes"/>
      <point x="240" y="44"/>
      <point x="240" y="53"/>
      <point x="240" y="84" type="curve" smooth="yes"/>
      <point x="240" y="170" type="line"/>
      <point x="322" y="226" type="line"/>
      <point x="436" y="103" type="line" smooth="yes"/>
      <point x="453" y="84"/>
      <point x="465" y="72"/>
      <point x="465" y="59" type="curve" smooth="yes"/>
      <point x="465" y="45"/>
      <point x="445" y="44"/>
      <point x="439" y="44" type="curve"/>
      <point x="439" y="0" type="line"/>
      <point x="480" y="3"/>
      <point x="548" y="4"/>
      <point x="563" y="4" type="curve" smooth="yes"/>
      <point x="601" y="4"/>
      <point x="629" y="3"/>
      <point x="665" y="0" type="curve"/>
      <point x="665" y="44" type="line"/>
      <point x="620" y="44"/>
      <point x="595" y="44"/>
      <point x="552" y="91" type="curve" smooth="yes"/>
      <point x="388" y="270" type="line"/>
      <point x="484" y="335" type="line" smooth="yes"/>
      <point x="544" y="375"/>
      <point x="596" y="387"/>
      <point x="637" y="387" type="curve"/>
      <point x="637" y="431" type="line"/>
      <point x="601" y="427"/>
      <point x="564" y="427"/>
      <point x="552" y="427" type="curve" smooth="yes"/>
      <point x="514" y="427"/>
      <point x="454" y="429"/>
      <point x="421" y="431" type="curve"/>
      <point x="421" y="387" type="line"/>
      <point x="435" y="385"/>
      <point x="436" y="375"/>
      <point x="436" y="373" type="curve" smooth="yes"/>
      <point x="436" y="370"/>
      <point x="436" y="355"/>
      <point x="407" y="335" type="curve" smooth="yes"/>
      <point x="244" y="223" type="line"/>
      <point x="244" y="694" type="line"/>
      <point x="76" y="683" type="line"/>
      <point x="76" y="639" type="line"/>
      <point x="150" y="639"/>
      <point x="159" y="632"/>
      <point x="159" y="583" type="curve" smooth="yes"/>
      <point x="159" y="84" type="line" smooth="yes"/>
      <point x="159" y="53"/>
      <point x="159" y="44"/>
      <point x="94" y="44" type="curve" smooth="yes"/>
      <point x="76" y="44" type="line"/>
    </contour>
  </outline>
</glyph>
<glyph name="l" format="2">
  <advance width="402"/>
  <unicode hex="006C"/>
  <outline>
    <contour>
      <point x="251" y="694" type="line"/>
      <point x="83" y="683" type="line"/>
      <point x="83" y="639" type="line"/>
      <point x="157" y="639"/>
      <point x="166" y="632"/>
      <point x="166" y="583" type="curve" smooth="yes"/>
      <point x="166" y="84" type="line" smooth="yes"/>
      <point x="166" y="53"/>
      <point x="166" y="44"/>
      <point x="101" y="44" type="curve" smooth="yes"/>
      <point x="83" y="44" type="line"/>
      <point x="83" y="0" type="line"/>
      <point x="125" y="3"/>
      <point x="166" y="4"/>
      <point x="208" y="4" type="curve" smooth="yes"/>
      <point x="250" y="4"/>
      <point x="292" y="3"/>
      <point x="334" y="0" type="curve"/>
      <point x="334" y="44" type="line"/>
      <point x="316" y="44" type="line" smooth="yes"/>
      <point x="251" y="44"/>
      <point x="251" y="53"/>
      <point x="251" y="84" type="curve" smooth="yes"/>
    </contour>
  </outline>
</glyph>
<glyph name="m" format="2">
  <advance width="1097"/>
  <unicode hex="006D"/>
  <outline>
    <contour>
      <point x="948" y="302" type="line" smooth="yes"/>
      <point x="948" y="425"/>
      <point x="854" y="442"/>
      <point x="779" y="442" type="curve" smooth="yes"/>
      <point x="681" y="442"/>
      <point x="624" y="393"/>
      <point x="596" y="349" type="curve"/>
      <point x="571" y="441"/>
      <point x="469" y="442"/>
      <point x="432" y="442" type="curve" smooth="yes"/>
      <point x="329" y="442"/>
      <point x="271" y="387"/>
      <point x="246" y="344" type="curve"/>
      <point x="246" y="442" type="line"/>
      <point x="82" y="431" type="line"/>
      <point x="82" y="387" type="line"/>
      <point x="156" y="387"/>
      <point x="165" y="380"/>
      <point x="165" y="331" type="curve" smooth="yes"/>
      <point x="165" y="84" type="line" smooth="yes"/>
      <point x="165" y="53"/>
      <point x="165" y="44"/>
      <point x="100" y="44" type="curve" smooth="yes"/>
      <point x="82" y="44" type="line"/>
      <point x="82" y="0" type="line"/>
      <point x="125" y="3"/>
      <point x="167" y="4"/>
      <point x="210" y="4" type="curve" smooth="yes"/>
      <point x="252" y="4"/>
      <point x="295" y="3"/>
      <point x="337" y="0" type="curve"/>
      <point x="337" y="44" type="line"/>
      <point x="319" y="44" type="line" smooth="yes"/>
      <point x="254" y="44"/>
      <point x="254" y="53"/>
      <point x="254" y="84" type="curve" smooth="yes"/>
      <point x="254" y="258" type="line" smooth="yes"/>
      <point x="254" y="369"/>
      <point x="356" y="409"/>
      <point x="421" y="409" type="curve" smooth="yes"/>
      <point x="494" y="409"/>
      <point x="512" y="368"/>
      <point x="512" y="303" type="curve" smooth="yes"/>
      <point x="512" y="84" type="line" smooth="yes"/>
      <point x="512" y="53"/>
      <point x="512" y="44"/>
      <point x="447" y="44" type="curve" smooth="yes"/>
      <point x="429" y="44" type="line"/>
      <point x="429" y="0" type="line"/>
      <point x="472" y="3"/>
      <point x="514" y="4"/>
      <point x="557" y="4" type="curve" smooth="yes"/>
      <point x="599" y="4"/>
      <point x="642" y="3"/>
      <point x="684" y="0" type="curve"/>
      <point x="684" y="44" type="line"/>
      <point x="666" y="44" type="line" smooth="yes"/>
      <point x="601" y="44"/>
      <point x="601" y="53"/>
      <point x="601" y="84" type="curve" smooth="yes"/>
      <point x="601" y="258" type="line" smooth="yes"/>
      <point x="601" y="369"/>
      <point x="703" y="409"/>
      <point x="768" y="409" type="curve" smooth="yes"/>
      <point x="841" y="409"/>
      <point x="859" y="368"/>
      <point x="859" y="303" type="curve" smooth="yes"/>
      <point x="859" y="84" type="line" smooth="yes"/>
      <point x="859" y="53"/>
      <point x="859" y="44"/>
      <point x="794" y="44" type="curve" smooth="yes"/>
      <point x="776" y="44" type="line"/>
      <point x="776" y="0" type="line"/>
      <point x="819" y="3"/>
      <point x="861" y="4"/>
      <point x="904" y="4" type="curve" smooth="yes"/>
      <point x="946" y="4"/>
      <point x="989" y="3"/>
      <point x="1031" y="0" type="curve"/>
      <point x="1031" y="44" type="line"/>
      <point x="1013" y="44" type="line" smooth="yes"/>
      <point x="948" y="44"/>
      <point x="948" y="53"/>
      <point x="948" y="84" type="curve" smooth="yes"/>
    </contour>
  </outline>
</glyph>
<glyph name="n" format="2">
  <advance width="750"/>
  <unicode hex="006E"/>
  <outline>
    <contour>
      <point x="600" y="302" type="line" smooth="yes"/>
      <point x="600" y="412"/>
      <point x="525" y="442"/>
      <point x="432" y="442" type="curve" smooth="yes"/>
      <point x="325" y="442"/>
      <point x="269" y="383"/>
      <point x="246" y="344" type="curve"/>
      <point x="246" y="442" type="line"/>
      <point x="82" y="431" type="line"/>
      <point x="82" y="387" type="line"/>
      <point x="156" y="387"/>
      <point x="165" y="380"/>
      <point x="165" y="331" type="curve" smooth="yes"/>
      <point x="165" y="84" type="line" smooth="yes"/>
      <point x="165" y="53"/>
      <point x="165" y="44"/>
      <point x="100" y="44" type="curve" smooth="yes"/>
      <point x="82" y="44" type="line"/>
      <point x="82" y="0" type="line"/>
      <point x="125" y="3"/>
      <point x="167" y="4"/>
      <point x="210" y="4" type="curve" smooth="yes"/>
      <point x="252" y="4"/>
      <point x="295" y="3"/>
      <point x="337" y="0" type="curve"/>
      <point x="337" y="44" type="line"/>
      <point x="319" y="44" type="line" smooth="yes"/>
      <point x="254" y="44"/>
      <point x="254" y="53"/>
      <point x="254" y="84" type="curve" smooth="yes"/>
      <point x="254" y="258" type="line" smooth="yes"/>
      <point x="254" y="371"/>
      <point x="358" y="409"/>
      <point x="420" y="409" type="curve" smooth="yes"/>
      <point x="494" y="409"/>
      <point x="511" y="367"/>
      <point x="511" y="303" type="curve" smooth="yes"/>
      <point x="511" y="84" type="line" smooth="yes"/>
      <point x="511" y="53"/>
      <point x="511" y="44"/>
      <point x="446" y="44" type="curve" smooth="yes"/>
      <point x="428" y="44" type="line"/>
      <point x="428" y="0" type="line"/>
      <point x="471" y="3"/>
      <point x="513" y="4"/>
      <point x="556" y="4" type="curve" smooth="yes"/>
      <point x="598" y="4"/>
      <point x="641" y="3"/>
      <point x="683" y="0" type="curve"/>
      <point x="683" y="44" type="line"/>
      <point x="665" y="44" type="line" smooth="yes"/>
      <point x="600" y="44"/>
      <point x="600" y="53"/>
      <point x="600" y="84" type="curve" smooth="yes"/>
    </contour>
  </outline>
</glyph>
<glyph name="o" format="2">
  <advance width="680"/>
  <unicode hex="006F"/>
  <outline>
    <contour>
      <point x="615" y="213" type="curve" smooth="yes"/>
      <point x="615" y="338"/>
      <point x="497" y="448"/>
      <point x="340" y="448" type="curve" smooth="yes"/>
      <point x="183" y="448"/>
      <point x="65" y="338"/>
      <point x="65" y="213" type="curve" smooth="yes"/>
      <point x="65" y="93"/>
      <point x="184" y="-11"/>
      <point x="340" y="-11" type="curve" smooth="yes"/>
      <point x="497" y="-11"/>
      <point x="615" y="93"/>
    </contour>
    <contour>
      <point x="340" y="25" type="curve" smooth="yes"/>
      <point x="165" y="25"/>
      <point x="165" y="174"/>
      <point x="165" y="223" type="curve" smooth="yes"/>
      <point x="165" y="268"/>
      <point x="165" y="415"/>
      <point x="340" y="415" type="curve" smooth="yes"/>
      <point x="515" y="415"/>
      <point x="515" y="268"/>
      <point x="515" y="223" type="curve" smooth="yes"/>
      <point x="515" y="174"/>
      <point x="515" y="25"/>
    </contour>
  </outline>
</glyph>
<glyph name="v" format="2">
  <advance width="715"/>
  <unicode hex="0076"/>
  <outline>
    <contour>
      <point x="553" y="327" type="line" smooth="yes"/>
      <point x="570" y="360"/>
      <point x="596" y="386"/>
      <point x="658" y="387" type="curve"/>
      <point x="658" y="431" type="line"/>
      <point x="632" y="429"/>
      <point x="606" y="427"/>
      <point x="571" y="427" type="curve" smooth="yes"/>
      <point x="570" y="427"/>
      <point x="505" y="428"/>
      <point x="469" y="431" type="curve"/>
      <point x="469" y="387" type="line"/>
      <point x="496" y="386"/>
      <point x="513" y="374"/>
      <point x="513" y="351" type="curve" smooth="yes"/>
      <point x="513" y="341"/>
      <point x="509" y="332"/>
      <point x="508" y="331" type="curve"/>
      <point x="381" y="83" type="line"/>
      <point x="244" y="350" type="line" smooth="yes"/>
      <point x="242" y="354"/>
      <point x="239" y="360"/>
      <point x="239" y="366" type="curve" smooth="yes"/>
      <point x="239" y="387"/>
      <point x="273" y="387"/>
      <point x="293" y="387" type="curve"/>
      <point x="293" y="431" type="line"/>
      <point x="247" y="428"/>
      <point x="175" y="427"/>
      <point x="168" y="427" type="curve" smooth="yes"/>
      <point x="128" y="427"/>
      <point x="98" y="427"/>
      <point x="56" y="431" type="curve"/>
      <point x="56" y="387" type="line"/>
      <point x="116" y="387"/>
      <point x="130" y="387"/>
      <point x="145" y="357" type="curve" smooth="yes"/>
      <point x="322" y="12" type="line" smooth="yes"/>
      <point x="329" y="-2"/>
      <point x="334" y="-11"/>
      <point x="357" y="-11" type="curve" smooth="yes"/>
      <point x="380" y="-11"/>
      <point x="385" y="-1"/>
      <point x="392" y="12" type="curve" smooth="yes"/>
    </contour>
  </outline>
</glyph>
<glyph name="y" format="2">
  <advance width="715"/>
  <unicode hex="0079"/>
  <outline>
    <contour>
      <point x="167" y="-205" type="curve" smooth="yes"/>
      <point x="226" y="-205"/>
      <point x="292" y="-168"/>
      <point x="338" y="-81" type="curve" smooth="yes"/>
      <point x="551" y="325" type="line" smooth="yes"/>
      <point x="563" y="348"/>
      <point x="583" y="386"/>
      <point x="658" y="387" type="curve"/>
      <point x="658" y="431" type="line"/>
      <point x="637" y="429"/>
      <point x="608" y="427"/>
      <point x="570" y="427" type="curve" smooth="yes"/>
      <point x="538" y="427"/>
      <point x="501" y="428"/>
      <point x="469" y="431" type="curve"/>
      <point x="469" y="387" type="line"/>
      <point x="496" y="387"/>
      <point x="512" y="372"/>
      <point x="512" y="352" type="curve" smooth="yes"/>
      <point x="512" y="344"/>
      <point x="509" y="337"/>
      <point x="506" y="330" type="curve"/>
      <point x="381" y="92" type="line"/>
      <point x="246" y="350" type="line" smooth="yes"/>
      <point x="240" y="361"/>
      <point x="240" y="364"/>
      <point x="240" y="367" type="curve" smooth="yes"/>
      <point x="240" y="385"/>
      <point x="267" y="387"/>
      <point x="294" y="387" type="curve"/>
      <point x="294" y="431" type="line"/>
      <point x="252" y="428"/>
      <point x="210" y="427"/>
      <point x="168" y="427" type="curve" smooth="yes"/>
      <point x="126" y="427"/>
      <point x="100" y="427"/>
      <point x="56" y="431" type="curve"/>
      <point x="56" y="387" type="line"/>
      <point x="127" y="387"/>
      <point x="132" y="383"/>
      <point x="147" y="355" type="curve" smooth="yes"/>
      <point x="333" y="0" type="line"/>
      <point x="333" y="0" type="line"/>
      <point x="291" y="-88"/>
      <point x="250" y="-172"/>
      <point x="167" y="-172" type="curve" smooth="yes"/>
      <point x="141" y="-172"/>
      <point x="133" y="-168"/>
      <point x="122" y="-161" type="curve"/>
      <point x="129" y="-158"/>
      <point x="150" y="-146"/>
      <point x="150" y="-116" type="curve" smooth="yes"/>
      <point x="150" y="-85"/>
      <point x="127" y="-67"/>
      <point x="101" y="-67" type="curve" smooth="yes"/>
      <point x="78" y="-67"/>
      <point x="52" y="-81"/>
      <point x="52" y="-117" type="curve" smooth="yes"/>
      <point x="52" y="-167"/>
      <point x="104" y="-205"/>
    </contour>
  </outline>
</glyph>
<glyph name="exclamdown" format="2">
  <advance width="402"/>
  <unicode hex="00A1"/>
  <outline>
    <contour>
      <point x="201" y="-216" type="curve" smooth="yes"/>
      <point x="230" y="-216"/>
      <point x="262" y="-195"/>
      <point x="262" y="-158" type="curve"/>
      <point x="223" y="278" type="line" smooth="yes"/>
      <point x="222" y="294"/>
      <point x="221" y="302"/>
      <point x="201" y="302" type="curve" smooth="yes"/>
      <point x="181" y="302"/>
      <point x="180" y="294"/>
      <point x="179" y="278" type="curve" smooth="yes"/>
      <point x="140" y="-158" type="line"/>
      <point x="140" y="-195"/>
      <point x="172" y="-216"/>
    </contour>
    <contour>
      <point x="262" y="439" type="curve" smooth="yes"/>
      <point x="262" y="473"/>
      <point x="235" y="500"/>
      <point x="201" y="500" type="curve" smooth="yes"/>
      <point x="168" y="500"/>
      <point x="140" y="473"/>
      <point x="140" y="439" type="curve" smooth="yes"/>
      <point x="140" y="405"/>
      <point x="167" y="378"/>
      <point x="201" y="378" type="curve" smooth="yes"/>
      <point x="234" y="378"/>
      <point x="262" y="405"/>
    </contour>
  </outline>
</glyph>
<glyph name="macron" format="2">
  <advance width="680"/>
  <unicode hex="00AF"/>
  <outline>
    <contour>
      <point x="565" y="559" type="line"/>
      <point x="565" y="603" type="line"/>
      <point x="115" y="603" type="line"/>
      <point x="115" y="559" type="line"/>
    </contour>
  </outline>
</glyph>
<glyph name="acute" format="2">
  <advance width="680"/>
  <unicode hex="00B4"/>
  <outline>
    <contour>
      <point x="492" y="612" type="line" smooth="yes"/>
      <point x="504" y="620"/>
      <point x="518" y="630"/>
      <point x="518" y="651" type="curve" smooth="yes"/>
      <point x="518" y="672"/>
      <point x="501" y="698"/>
      <point x="472" y="698" type="curve" smooth="yes"/>
      <point x="456" y="698"/>
      <point x="449" y="691"/>
      <point x="439" y="682" type="curve" smooth="yes"/>
      <point x="284" y="535" type="line"/>
      <point x="310" y="502" type="line"/>
    </contour>
  </outline>
</glyph>
<glyph name="cedilla" format="2">
  <advance width="611"/>
  <unicode hex="00B8"/>
  <outline>
    <contour>
      <point x="384" y="-22" type="line"/>
      <point x="295" y="-22" type="line"/>
      <point x="295" y="-71" type="line"/>
      <point x="333" y="-71"/>
      <point x="399" y="-76"/>
      <point x="399" y="-122" type="curve" smooth="yes"/>
      <point x="399" y="-148"/>
      <point x="375" y="-164"/>
      <point x="315" y="-171" type="curve" smooth="yes"/>
      <point x="269" y="-177"/>
      <point x="236" y="-173"/>
      <point x="191" y="-176" type="curve"/>
      <point x="191" y="-209" type="line"/>
      <point x="255" y="-205"/>
      <point x="298" y="-210"/>
      <point x="368" y="-201" type="curve" smooth="yes"/>
      <point x="457" y="-190"/>
      <point x="488" y="-162"/>
      <point x="488" y="-122" type="curve" smooth="yes"/>
      <point x="488" y="-72"/>
      <point x="443" y="-50"/>
      <point x="384" y="-43" type="curve"/>
    </contour>
  </outline>
</glyph>
<glyph name="AE" format="2">
  <advance width="1177"/>
  <unicode hex="00C6"/>
  <outline>
    <contour>
      <point x="1114" y="271" type="line"/>
      <point x="1072" y="271" type="line"/>
      <point x="1044" y="114"/>
      <point x="1014" y="44"/>
      <point x="839" y="44" type="curve" smooth="yes"/>
      <point x="691" y="44" type="line" smooth="yes"/>
      <point x="642" y="44"/>
      <point x="642" y="51"/>
      <point x="642" y="82" type="curve" smooth="yes"/>
      <point x="642" y="306" type="line"/>
      <point x="752" y="306" type="line" smooth="yes"/>
      <point x="853" y="306"/>
      <point x="875" y="282"/>
      <point x="875" y="189" type="curve"/>
      <point x="917" y="189" type="line"/>
      <point x="917" y="467" type="line"/>
      <point x="875" y="467" type="line"/>
      <point x="875" y="374"/>
      <point x="853" y="350"/>
      <point x="752" y="350" type="curve" smooth="yes"/>
      <point x="642" y="350" type="line"/>
      <point x="642" y="601" type="line" smooth="yes"/>
      <point x="642" y="632"/>
      <point x="642" y="639"/>
      <point x="691" y="639" type="curve" smooth="yes"/>
      <point x="830" y="639" type="line" smooth="yes"/>
      <point x="996" y="639"/>
      <point x="1019" y="580"/>
      <point x="1038" y="445" type="curve"/>
      <point x="1080" y="445" type="line"/>
      <point x="1047" y="683" type="line"/>
      <point x="361" y="683" type="line"/>
      <point x="361" y="639" type="line"/>
      <point x="422" y="639" type="line" smooth="yes"/>
      <point x="435" y="639"/>
      <point x="437" y="639"/>
      <point x="444" y="637" type="curve"/>
      <point x="200" y="105" type="line" smooth="yes"/>
      <point x="186" y="74"/>
      <point x="158" y="44"/>
      <point x="72" y="44" type="curve"/>
      <point x="72" y="0" type="line"/>
      <point x="108" y="3"/>
      <point x="150" y="4"/>
      <point x="187" y="4" type="curve" smooth="yes"/>
      <point x="230" y="4"/>
      <point x="274" y="3"/>
      <point x="317" y="0" type="curve"/>
      <point x="317" y="44" type="line"/>
      <point x="267" y="44"/>
      <point x="243" y="66"/>
      <point x="243" y="88" type="curve" smooth="yes"/>
      <point x="243" y="95"/>
      <point x="246" y="100"/>
      <point x="248" y="105" type="curve" smooth="yes"/>
      <point x="340" y="306" type="line"/>
      <point x="542" y="306" type="line"/>
      <point x="542" y="84" type="line" smooth="yes"/>
      <point x="542" y="53"/>
      <point x="542" y="44"/>
      <point x="477" y="44" type="curve" smooth="yes"/>
      <point x="459" y="44" type="line"/>
      <point x="459" y="0" type="line"/>
      <point x="1064" y="0" type="line"/>
    </contour>
    <contour>
      <point x="491" y="636" type="line"/>
      <point x="542" y="636"/>
      <point x="542" y="617"/>
      <point x="542" y="597" type="curve" smooth="yes"/>
      <point x="542" y="350" type="line"/>
      <point x="361" y="350" type="line"/>
    </contour>
  </outline>
</glyph>
<glyph name="Oslash" format="2">
  <advance width="1027"/>
  <unicode hex="00D8"/>
  <outline>
    <contour>
      <point x="858" y="720" type="line"/>
      <point x="830" y="744" type="line"/>
      <point x="746" y="643" type="line"/>
      <point x="668" y="689"/>
      <point x="583" y="705"/>
      <point x="514" y="705" type="curve" smooth="yes"/>
      <point x="276" y="705"/>
      <point x="97" y="534"/>
      <point x="97" y="339" type="curve" smooth="yes"/>
      <point x="97" y="261"/>
      <point x="126" y="150"/>
      <point x="250" y="59" type="curve"/>
      <point x="169" y="-37" type="line"/>
      <point x="197" y="-61" type="line"/>
      <point x="281" y="39" type="line"/>
      <point x="321" y="17"/>
      <point x="398" y="-22"/>
      <point x="513" y="-22" type="curve" smooth="yes"/>
      <point x="750" y="-22"/>
      <point x="930" y="145"/>
      <point x="930" y="339" type="curve" smooth="yes"/>
      <point x="930" y="433"/>
      <point x="887" y="543"/>
      <point x="776" y="623" type="curve"/>
    </contour>
    <contour>
      <point x="494" y="-7" type="curve" smooth="yes"/>
      <point x="435" y="-7"/>
      <point x="381" y="24"/>
      <point x="312" y="75" type="curve"/>
      <point x="741" y="583" type="line"/>
      <point x="799" y="525"/>
      <point x="804" y="419"/>
      <point x="804" y="321" type="curve" smooth="yes"/>
      <point x="804.0" y="203.65134"/>
      <point x="768.1550153817" y="127.1694257484"/>
      <point x="718.8753357233865" y="77.86308354785456" type="curve" smooth="yes"/>
      <point x="649.7312543976" y="8.681592137399988"/>
      <point x="554.13861" y="-7.000000000000005"/>
    </contour>
    <contour>
      <point x="285" y="100" type="line"/>
      <point x="212" y="172"/>
      <point x="203" y="279"/>
      <point x="203" y="339" type="curve" smooth="yes"/>
      <point x="203" y="624"/>
      <point x="409" y="672"/>
      <point x="513" y="672" type="curve" smooth="yes"/>
      <point x="565" y="672"/>
      <point x="643" y="662"/>
      <point x="714" y="607" type="curve"/>
    </contour>
  </outline>
</glyph>
<glyph name="germandbls" format="2">
  <advance width="680"/>
  <unicode hex="00DF"/>
  <outline>
    <contour>
      <point x="435" y="412" type="curve"/>
      <point x="504" y="433"/>
      <point x="583" y="483"/>
      <point x="583" y="560" type="curve" smooth="yes"/>
      <point x="583" y="637"/>
      <point x="492" y="705"/>
      <point x="370" y="705" type="curve" smooth="yes"/>
      <point x="268" y="705"/>
      <point x="159" y="654"/>
      <point x="159" y="553" type="curve" smooth="yes"/>
      <point x="159" y="431" type="line"/>
      <point x="76" y="431" type="line"/>
      <point x="76" y="387" type="line"/>
      <point x="159" y="387" type="line"/>
      <point x="159" y="84" type="line" smooth="yes"/>
      <point x="159" y="53"/>
      <point x="159" y="44"/>
      <point x="94" y="44" type="curve" smooth="yes"/>
      <point x="76" y="44" type="line"/>
      <point x="76" y="0" type="line"/>
      <point x="108" y="3"/>
      <point x="181" y="4"/>
      <point x="188" y="4" type="curve" smooth="yes"/>
      <point x="206" y="4"/>
      <point x="222" y="4"/>
      <point x="244" y="0" type="curve"/>
      <point x="244" y="552" type="line" smooth="yes"/>
      <point x="244" y="665"/>
      <point x="345" y="672"/>
      <point x="369" y="672" type="curve" smooth="yes"/>
      <point x="425" y="672"/>
      <point x="490" y="640"/>
      <point x="490" y="560" type="curve" smooth="yes"/>
      <point x="490" y="484"/>
      <point x="424" y="435"/>
      <point x="337" y="431" type="curve" smooth="yes"/>
      <point x="322" y="430"/>
      <point x="313" y="430"/>
      <point x="313" y="414" type="curve" smooth="yes"/>
      <point x="313" y="411"/>
      <point x="313" y="399"/>
      <point x="328" y="398" type="curve" smooth="yes"/>
      <point x="470" y="390"/>
      <point x="524" y="274"/>
      <point x="524" y="174" type="curve" smooth="yes"/>
      <point x="524" y="57"/>
      <point x="447" y="22"/>
      <point x="396" y="22" type="curve" smooth="yes"/>
      <point x="390" y="22"/>
      <point x="367" y="22"/>
      <point x="345" y="36" type="curve"/>
      <point x="353" y="41"/>
      <point x="365" y="52"/>
      <point x="365" y="73" type="curve" smooth="yes"/>
      <point x="365" y="99"/>
      <point x="345" y="115"/>
      <point x="323" y="115" type="curve" smooth="yes"/>
      <point x="300" y="115"/>
      <point x="280" y="100"/>
      <point x="280" y="71" type="curve" smooth="yes"/>
      <point x="280" y="28"/>
      <point x="324" y="-11"/>
      <point x="398" y="-11" type="curve" smooth="yes"/>
      <point x="514" y="-11"/>
      <point x="617" y="68"/>
      <point x="617" y="174" type="curve" smooth="yes"/>
      <point x="617" y="286"/>
      <point x="532" y="381"/>
    </contour>
  </outline>
</glyph>
<glyph name="oslash" format="2">
  <advance width="680"/>
  <unicode hex="00F8"/>
  <outline>
    <contour>
      <point x="579" y="518" type="line"/>
      <point x="552" y="538" type="line"/>
      <point x="468" y="420" type="line"/>
      <point x="419" y="443"/>
      <point x="374" y="448"/>
      <point x="340" y="448" type="curve" smooth="yes"/>
      <point x="186" y="448"/>
      <point x="70" y="338"/>
      <point x="70" y="213" type="curve" smooth="yes"/>
      <point x="70" y="161"/>
      <point x="91" y="88"/>
      <point x="185" y="29" type="curve"/>
      <point x="101" y="-87" type="line"/>
      <point x="128" y="-107" type="line"/>
      <point x="215" y="14" type="line"/>
      <point x="268" y="-8"/>
      <point x="313" y="-11"/>
      <point x="340" y="-11" type="curve" smooth="yes"/>
      <point x="494" y="-11"/>
      <point x="610" y="93"/>
      <point x="610" y="213" type="curve" smooth="yes"/>
      <point x="610" y="274"/>
      <point x="580" y="352"/>
      <point x="497" y="404" type="curve"/>
    </contour>
    <contour>
      <point x="210" y="65" type="line"/>
      <point x="162" y="109"/>
      <point x="159" y="177"/>
      <point x="159" y="214" type="curve" smooth="yes"/>
      <point x="159" y="247"/>
      <point x="161" y="309"/>
      <point x="197" y="354" type="curve" smooth="yes"/>
      <point x="232" y="398"/>
      <point x="289" y="415"/>
      <point x="340" y="415" type="curve" smooth="yes"/>
      <point x="376" y="415"/>
      <point x="412" y="407"/>
      <point x="444" y="388" type="curve"/>
    </contour>
    <contour>
      <point x="470" y="368" type="line"/>
      <point x="494" y="345"/>
      <point x="521" y="308"/>
      <point x="521" y="214" type="curve" smooth="yes"/>
      <point x="521" y="174"/>
      <point x="521" y="22"/>
      <point x="340" y="22" type="curve" smooth="yes"/>
      <point x="312" y="22"/>
      <point x="273" y="26"/>
      <point x="238" y="46" type="curve"/>
    </contour>
  </outline>
</glyph>
<glyph name="OE" format="2">
  <advance width="1316"/>
  <unicode hex="0152"/>
  <outline>
    <contour>
      <point x="1253" y="271" type="line"/>
      <point x="1211" y="271" type="line"/>
      <point x="1183" y="113"/>
      <point x="1152" y="44"/>
      <point x="970" y="44" type="curve" smooth="yes"/>
      <point x="806" y="44" type="line" smooth="yes"/>
      <point x="757" y="44"/>
      <point x="757" y="51"/>
      <point x="757" y="82" type="curve" smooth="yes"/>
      <point x="757" y="333" type="line"/>
      <point x="895" y="333" type="line" smooth="yes"/>
      <point x="993" y="333"/>
      <point x="1031" y="317"/>
      <point x="1031" y="216" type="curve"/>
      <point x="1073" y="216" type="line"/>
      <point x="1073" y="494" type="line"/>
      <point x="1031" y="494" type="line"/>
      <point x="1031" y="393"/>
      <point x="993" y="377"/>
      <point x="895" y="377" type="curve" smooth="yes"/>
      <point x="757" y="377" type="line"/>
      <point x="757" y="601" type="line" smooth="yes"/>
      <point x="757" y="632"/>
      <point x="757" y="639"/>
      <point x="806" y="639" type="curve" smooth="yes"/>
      <point x="961" y="639" type="line" smooth="yes"/>
      <point x="1130" y="639"/>
      <point x="1158" y="584"/>
      <point x="1177" y="445" type="curve"/>
      <point x="1219" y="445" type="line"/>
      <point x="1186" y="683" type="line"/>
      <point x="712" y="683" type="line" smooth="yes"/>
      <point x="696" y="683"/>
      <point x="672" y="684"/>
      <point x="620" y="693" type="curve" smooth="yes"/>
      <point x="566" y="704"/>
      <point x="545" y="705"/>
      <point x="522" y="705" type="curve" smooth="yes"/>
      <point x="294" y="705"/>
      <point x="108" y="539"/>
      <point x="108" y="339" type="curve" smooth="yes"/>
      <point x="108" y="138"/>
      <point x="298" y="-22"/>
      <point x="521" y="-22" type="curve" smooth="yes"/>
      <point x="535" y="-22"/>
      <point x="558" y="-22"/>
      <point x="615" y="-12" type="curve" smooth="yes"/>
      <point x="665" y="-2"/>
      <point x="688" y="0"/>
      <point x="712" y="0" type="curve" smooth="yes"/>
      <point x="1203" y="0" type="line"/>
    </contour>
    <contour>
      <point x="529" y="11" type="curve" smooth="yes"/>
      <point x="348" y="11"/>
      <point x="221" y="174"/>
      <point x="221" y="354" type="curve" smooth="yes"/>
      <point x="221" y="525"/>
      <point x="350" y="672"/>
      <point x="529" y="672" type="curve" smooth="yes"/>
      <point x="647" y="672"/>
      <point x="661" y="627"/>
      <point x="663" y="481" type="curve" smooth="yes"/>
      <point x="664" y="416"/>
      <point x="664" y="414"/>
      <point x="664" y="342" type="curve" smooth="yes"/>
      <point x="664" y="213"/>
      <point x="664" y="155"/>
      <point x="659" y="121" type="curve" smooth="yes"/>
      <point x="649" y="46"/>
      <point x="631" y="11"/>
    </contour>
  </outline>
</glyph>
<glyph name="caron" format="2">
  <advance width="680"/>
  <unicode hex="02C7"/>
  <outline>
    <contour>
      <point x="340" y="579" type="line"/>
      <point x="194" y="647" type="line"/>
      <point x="174" y="610" type="line"/>
      <point x="340" y="513" type="line"/>
      <point x="506" y="609" type="line"/>
      <point x="486" y="647" type="line"/>
    </contour>
  </outline>
</glyph>
<glyph name="ring" format="2">
  <advance width="980"/>
  <unicode hex="02DA"/>
  <outline>
    <contour>
      <point x="615" y="628" type="curve" smooth="yes"/>
      <point x="615" y="676"/>
      <point x="561" y="716"/>
      <point x="490" y="716" type="curve" smooth="yes"/>
      <point x="416" y="716"/>
      <point x="365" y="673"/>
      <point x="365" y="629" type="curve" smooth="yes"/>
      <point x="365" y="581"/>
      <point x="419" y="541"/>
      <point x="490" y="541" type="curve" smooth="yes"/>
      <point x="564" y="541"/>
      <point x="615" y="584"/>
    </contour>
    <contour>
      <point x="490" y="574" type="curve" smooth="yes"/>
      <point x="459" y="574"/>
      <point x="407" y="574"/>
      <point x="407" y="628" type="curve" smooth="yes"/>
      <point x="407" y="683"/>
      <point x="458" y="683"/>
      <point x="490" y="683" type="curve" smooth="yes"/>
      <point x="521" y="683"/>
      <point x="573" y="683"/>
      <point x="573" y="629" type="curve" smooth="yes"/>
      <point x="573" y="574"/>
      <point x="522" y="574"/>
    </contour>
  </outline>
</glyph>
<glyph name="tilde" format="2">
  <advance width="680"/>
  <unicode hex="02DC"/>
  <outline>
    <contour>
      <point x="154" y="571" type="line"/>
      <point x="184" y="598"/>
      <point x="214" y="614"/>
      <point x="248" y="614" type="curve" smooth="yes"/>
      <point x="276" y="614"/>
      <point x="308" y="602"/>
      <point x="331" y="593" type="curve" smooth="yes"/>
      <point x="373" y="576"/>
      <point x="395" y="571"/>
      <point x="415" y="571" type="curve" smooth="yes"/>
      <point x="450" y="571"/>
      <point x="474" y="578"/>
      <point x="548" y="652" type="curve"/>
      <point x="526" y="676" type="line"/>
      <point x="496" y="649"/>
      <point x="466" y="633"/>
      <point x="432" y="633" type="curve" smooth="yes"/>
      <point x="404" y="633"/>
      <point x="372" y="645"/>
      <point x="349" y="654" type="curve" smooth="yes"/>
      <point x="307" y="671"/>
      <point x="285" y="676"/>
      <point x="265" y="676" type="curve" smooth="yes"/>
      <point x="227" y="676"/>
      <point x="203" y="666"/>
      <point x="132" y="595" type="curve"/>
    </contour>
  </outline>
</glyph>
<glyph name="Gamma" format="2">
  <advance width="830"/>
  <unicode hex="0393"/>
  <outline>
    <contour>
      <point x="83" y="0" type="line"/>
      <point x="135" y="2"/>
      <point x="190" y="4"/>
      <point x="252" y="4" type="curve" smooth="yes"/>
      <point x="309" y="4"/>
      <point x="383" y="4"/>
      <point x="439" y="0" type="curve"/>
      <point x="439" y="44" type="line"/>
      <point x="396" y="44" type="line" smooth="yes"/>
      <point x="300" y="44"/>
      <point x="300" y="54"/>
      <point x="300" y="86" type="curve" smooth="yes"/>
      <point x="300" y="597" type="line" smooth="yes"/>
      <point x="300" y="628"/>
      <point x="300" y="635"/>
      <point x="349" y="635" type="curve" smooth="yes"/>
      <point x="494" y="635" type="line" smooth="yes"/>
      <point x="663" y="635"/>
      <point x="689" y="578"/>
      <point x="708" y="441" type="curve"/>
      <point x="750" y="441" type="line"/>
      <point x="717" y="679" type="line"/>
      <point x="83" y="679" type="line"/>
      <point x="83" y="635" type="line"/>
      <point x="113" y="635" type="line" smooth="yes"/>
      <point x="194" y="635"/>
      <point x="194" y="625"/>
      <point x="194" y="594" type="curve" smooth="yes"/>
      <point x="194" y="85" type="line" smooth="yes"/>
      <point x="194" y="54"/>
      <point x="194" y="44"/>
      <point x="113" y="44" type="curve" smooth="yes"/>
      <point x="83" y="44" type="line"/>
    </contour>
  </outline>
</glyph>
<glyph name="Theta" format="2">
  <advance width="1027"/>
  <unicode hex="0398"/>
  <outline>
    <contour>
      <point x="930" y="339" type="curve" smooth="yes"/>
      <point x="930" y="536"/>
      <point x="749" y="705"/>
      <point x="514" y="705" type="curve" smooth="yes"/>
      <point x="276" y="705"/>
      <point x="97" y="534"/>
      <point x="97" y="339" type="curve" smooth="yes"/>
      <point x="97" y="143"/>
      <point x="280" y="-22"/>
      <point x="513" y="-22" type="curve" smooth="yes"/>
      <point x="750" y="-22"/>
      <point x="930" y="145"/>
    </contour>
    <contour>
      <point x="514" y="12" type="curve" smooth="yes"/>
      <point x="355" y="12"/>
      <point x="206" y="124"/>
      <point x="206" y="339" type="curve" smooth="yes"/>
      <point x="206" y="561"/>
      <point x="360" y="672"/>
      <point x="513" y="672" type="curve" smooth="yes"/>
      <point x="672" y="672"/>
      <point x="821" y="557"/>
      <point x="821" y="339" type="curve" smooth="yes"/>
      <point x="821" y="121"/>
      <point x="668" y="12"/>
    </contour>
    <contour>
      <point x="751" y="422" type="line"/>
      <point x="709" y="422" type="line"/>
      <point x="709" y="388" type="line"/>
      <point x="318" y="388" type="line"/>
      <point x="318" y="422" type="line"/>
      <point x="276" y="422" type="line"/>
      <point x="276" y="263" type="line"/>
      <point x="318" y="263" type="line"/>
      <point x="318" y="297" type="line"/>
      <point x="709" y="297" type="line"/>
      <point x="709" y="263" type="line"/>
      <point x="751" y="263" type="line"/>
    </contour>
  </outline>
</glyph>
<glyph name="Lambda" format="2">
  <advance width="911"/>
  <unicode hex="039B"/>
  <outline>
    <contour>
      <point x="71" y="0" type="line"/>
      <point x="112" y="3"/>
      <point x="161" y="4"/>
      <point x="176" y="4" type="curve" smooth="yes"/>
      <point x="208" y="4"/>
      <point x="271" y="2"/>
      <point x="304" y="0" type="curve"/>
      <point x="304" y="44" type="line"/>
      <point x="260" y="44"/>
      <point x="227" y="61"/>
      <point x="227" y="89" type="curve" smooth="yes"/>
      <point x="227" y="91"/>
      <point x="227" y="98"/>
      <point x="232" y="110" type="curve" smooth="yes"/>
      <point x="422" y="575" type="line"/>
      <point x="622" y="82" type="line"/>
      <point x="623" y="79"/>
      <point x="626" y="71"/>
      <point x="626" y="68" type="curve" smooth="yes"/>
      <point x="626" y="44"/>
      <point x="566" y="44"/>
      <point x="539" y="44" type="curve"/>
      <point x="539" y="0" type="line"/>
      <point x="576" y="1"/>
      <point x="653" y="4"/>
      <point x="700" y="4" type="curve" smooth="yes"/>
      <point x="713" y="4"/>
      <point x="787" y="3"/>
      <point x="839" y="0" type="curve"/>
      <point x="839" y="44" type="line"/>
      <point x="819" y="44" type="line" smooth="yes"/>
      <point x="766" y="44"/>
      <point x="749" y="49"/>
      <point x="738" y="76" type="curve" smooth="yes"/>
      <point x="489" y="690" type="line" smooth="yes"/>
      <point x="482" y="707"/>
      <point x="478" y="716"/>
      <point x="455" y="716" type="curve" smooth="yes"/>
      <point x="432" y="716"/>
      <point x="428" y="707"/>
      <point x="421" y="690" type="curve" smooth="yes"/>
      <point x="183" y="103" type="line" smooth="yes"/>
      <point x="159" y="45"/>
      <point x="94" y="44"/>
      <point x="71" y="44" type="curve"/>
    </contour>
  </outline>
</glyph>
<glyph name="Xi" format="2">
  <advance width="888"/>
  <unicode hex="039E"/>
  <outline>
    <contour>
      <point x="90" y="0" type="line"/>
      <point x="798" y="0" type="line"/>
      <point x="808" y="181" type="line"/>
      <point x="766" y="181" type="line"/>
      <point x="764" y="140"/>
      <point x="761" y="106"/>
      <point x="750" y="93" type="curve"/>
      <point x="744" y="84"/>
      <point x="660" y="84"/>
      <point x="659" y="84" type="curve" smooth="yes"/>
      <point x="229" y="84" type="line" smooth="yes"/>
      <point x="222" y="84"/>
      <point x="143" y="84"/>
      <point x="137" y="93" type="curve" smooth="yes"/>
      <point x="131" y="103"/>
      <point x="125" y="118"/>
      <point x="122" y="181" type="curve"/>
      <point x="80" y="181" type="line"/>
    </contour>
    <contour>
      <point x="202" y="253" type="line"/>
      <point x="244" y="253" type="line"/>
      <point x="244" y="309" type="line"/>
      <point x="644" y="309" type="line"/>
      <point x="644" y="253" type="line"/>
      <point x="686" y="253" type="line"/>
      <point x="686" y="449" type="line"/>
      <point x="644" y="449" type="line"/>
      <point x="644" y="393" type="line"/>
      <point x="244" y="393" type="line"/>
      <point x="244" y="449" type="line"/>
      <point x="202" y="449" type="line"/>
    </contour>
    <contour>
      <point x="87" y="505" type="line"/>
      <point x="129" y="505" type="line"/>
      <point x="130" y="528"/>
      <point x="133" y="574"/>
      <point x="146" y="584" type="curve"/>
      <point x="153" y="591"/>
      <point x="217" y="591"/>
      <point x="230" y="591" type="curve" smooth="yes"/>
      <point x="658" y="591" type="line" smooth="yes"/>
      <point x="659" y="591"/>
      <point x="737" y="591"/>
      <point x="743" y="583" type="curve"/>
      <point x="755" y="570"/>
      <point x="758" y="528"/>
      <point x="759" y="505" type="curve"/>
      <point x="801" y="505" type="line"/>
      <point x="791" y="675" type="line"/>
      <point x="97" y="675" type="line"/>
    </contour>
  </outline>
</glyph>
<glyph name="Pi" format="2">
  <advance width="980"/>
  <unicode hex="03A0"/>
  <outline>
    <contour>
      <point x="786" y="594" type="line" smooth="yes"/>
      <point x="786" y="625"/>
      <point x="786" y="635"/>
      <point x="867" y="635" type="curve" smooth="yes"/>
      <point x="897" y="635" type="line"/>
      <point x="897" y="679" type="line"/>
      <point x="83" y="679" type="line"/>
      <point x="83" y="635" type="line"/>
      <point x="113" y="635" type="line" smooth="yes"/>
      <point x="194" y="635"/>
      <point x="194" y="625"/>
      <point x="194" y="594" type="curve" smooth="yes"/>
      <point x="194" y="85" type="line" smooth="yes"/>
      <point x="194" y="54"/>
      <point x="194" y="44"/>
      <point x="113" y="44" type="curve" smooth="yes"/>
      <point x="83" y="44" type="line"/>
      <point x="83" y="0" type="line"/>
      <point x="128" y="2"/>
      <point x="190" y="4"/>
      <point x="247" y="4" type="curve" smooth="yes"/>
      <point x="304" y="4"/>
      <point x="366" y="2"/>
      <point x="411" y="0" type="curve"/>
      <point x="411" y="44" type="line"/>
      <point x="381" y="44" type="line" smooth="yes"/>
      <point x="300" y="44"/>
      <point x="300" y="54"/>
      <point x="300" y="85" type="curve" smooth="yes"/>
      <point x="300" y="635" type="line"/>
      <point x="680" y="635" type="line"/>
      <point x="680" y="85" type="line" smooth="yes"/>
      <point x="680" y="54"/>
      <point x="680" y="44"/>
      <point x="599" y="44" type="curve" smooth="yes"/>
      <point x="569" y="44" type="line"/>
      <point x="569" y="0" type="line"/>
      <point x="614" y="2"/>
      <point x="676" y="4"/>
      <point x="733" y="4" type="curve" smooth="yes"/>
      <point x="790" y="4"/>
      <point x="852" y="2"/>
      <point x="897" y="0" type="curve"/>
      <point x="897" y="44" type="line"/>
      <point x="867" y="44" type="line" smooth="yes"/>
      <point x="786" y="44"/>
      <point x="786" y="54"/>
      <point x="786" y="85" type="curve" smooth="yes"/>
    </contour>
  </outline>
</glyph>
<glyph name="Upsilon" format="2">
  <advance width="1027"/>
  <unicode hex="03A5"/>
  <outline>
    <contour>
      <point x="567" y="344" type="line" smooth="yes"/>
      <point x="567" y="461"/>
      <point x="624" y="617"/>
      <point x="766" y="617" type="curve" smooth="yes"/>
      <point x="792" y="617"/>
      <point x="879" y="613"/>
      <point x="886" y="551" type="curve" smooth="yes"/>
      <point x="887" y="538"/>
      <point x="888" y="530"/>
      <point x="908" y="530" type="curve" smooth="yes"/>
      <point x="917" y="530"/>
      <point x="930" y="530"/>
      <point x="930" y="551" type="curve" smooth="yes"/>
      <point x="930" y="623"/>
      <point x="865" y="705"/>
      <point x="763" y="705" type="curve" smooth="yes"/>
      <point x="635" y="705"/>
      <point x="546" y="597"/>
      <point x="514" y="452" type="curve"/>
      <point x="513" y="452" type="line"/>
      <point x="478" y="612"/>
      <point x="382" y="705"/>
      <point x="264" y="705" type="curve" smooth="yes"/>
      <point x="162" y="705"/>
      <point x="97" y="623"/>
      <point x="97" y="551" type="curve" smooth="yes"/>
      <point x="97" y="530"/>
      <point x="110" y="530"/>
      <point x="119" y="530" type="curve" smooth="yes"/>
      <point x="127" y="530"/>
      <point x="139" y="530"/>
      <point x="141" y="547" type="curve" smooth="yes"/>
      <point x="148" y="617"/>
      <point x="240" y="617"/>
      <point x="261" y="617" type="curve" smooth="yes"/>
      <point x="403" y="617"/>
      <point x="461" y="460"/>
      <point x="461" y="344" type="curve" smooth="yes"/>
      <point x="461" y="86" type="line" smooth="yes"/>
      <point x="461" y="55"/>
      <point x="461" y="44"/>
      <point x="365" y="44" type="curve" smooth="yes"/>
      <point x="322" y="44" type="line"/>
      <point x="322" y="0" type="line"/>
      <point x="382" y="4"/>
      <point x="453" y="4"/>
      <point x="514" y="4" type="curve" smooth="yes"/>
      <point x="575" y="4"/>
      <point x="646" y="4"/>
      <point x="706" y="0" type="curve"/>
      <point x="706" y="44" type="line"/>
      <point x="663" y="44" type="line" smooth="yes"/>
      <point x="567" y="44"/>
      <point x="567" y="54"/>
      <point x="567" y="86" type="curve" smooth="yes"/>
    </contour>
  </outline>
</glyph>
<glyph name="Phi" format="2">
  <advance width="958"/>
  <unicode hex="03A6"/>
  <outline>
    <contour>
      <point x="287" y="0" type="line"/>
      <point x="348" y="4"/>
      <point x="414" y="4"/>
      <point x="475" y="4" type="curve" smooth="yes"/>
      <point x="536" y="4"/>
      <point x="602" y="4"/>
      <point x="663" y="0" type="curve"/>
      <point x="663" y="44" type="line"/>
      <point x="620" y="44" type="line" smooth="yes"/>
      <point x="524" y="44"/>
      <point x="524" y="54"/>
      <point x="524" y="86" type="curve" smooth="yes"/>
      <point x="524" y="147" type="line"/>
      <point x="727" y="161"/>
      <point x="860" y="246"/>
      <point x="860" y="341" type="curve" smooth="yes"/>
      <point x="860" y="439"/>
      <point x="723" y="522"/>
      <point x="524" y="536" type="curve"/>
      <point x="524" y="597" type="line" smooth="yes"/>
      <point x="524" y="628"/>
      <point x="524" y="639"/>
      <point x="620" y="639" type="curve" smooth="yes"/>
      <point x="663" y="639" type="line"/>
      <point x="663" y="683" type="line"/>
      <point x="602" y="679"/>
      <point x="536" y="679"/>
      <point x="475" y="679" type="curve" smooth="yes"/>
      <point x="414" y="679"/>
      <point x="348" y="679"/>
      <point x="287" y="683" type="curve"/>
      <point x="287" y="639" type="line"/>
      <point x="330" y="639" type="line" smooth="yes"/>
      <point x="426" y="639"/>
      <point x="426" y="629"/>
      <point x="426" y="597" type="curve" smooth="yes"/>
      <point x="426" y="535" type="line"/>
      <point x="251" y="524"/>
      <point x="97" y="445"/>
      <point x="97" y="342" type="curve" smooth="yes"/>
      <point x="97" y="236"/>
      <point x="255" y="158"/>
      <point x="426" y="148" type="curve"/>
      <point x="426" y="86" type="line" smooth="yes"/>
      <point x="426" y="55"/>
      <point x="426" y="44"/>
      <point x="330" y="44" type="curve" smooth="yes"/>
      <point x="287" y="44" type="line"/>
    </contour>
    <contour>
      <point x="426" y="181" type="line"/>
      <point x="312" y="188"/>
      <point x="210" y="232"/>
      <point x="210" y="341" type="curve" smooth="yes"/>
      <point x="210" y="455"/>
      <point x="319" y="495"/>
      <point x="426" y="502" type="curve"/>
    </contour>
    <contour>
      <point x="524" y="180" type="curve"/>
      <point x="524" y="503" type="line"/>
      <point x="580" y="500"/>
      <point x="747" y="482"/>
      <point x="747" y="342" type="curve" smooth="yes"/>
      <point x="747" y="204"/>
      <point x="587" y="184"/>
    </contour>
  </outline>
</glyph>
<glyph name="Psi" format="2">
  <advance width="1027"/>
  <unicode hex="03A8"/>
  <outline>
    <contour>
      <point x="559" y="597" type="line" smooth="yes"/>
      <point x="559" y="628"/>
      <point x="559" y="639"/>
      <point x="655" y="639" type="curve" smooth="yes"/>
      <point x="698" y="639" type="line"/>
      <point x="698" y="683" type="line"/>
      <point x="637" y="679"/>
      <point x="571" y="679"/>
      <point x="510" y="679" type="curve" smooth="yes"/>
      <point x="449" y="679"/>
      <point x="383" y="679"/>
      <point x="322" y="683" type="curve"/>
      <point x="322" y="639" type="line"/>
      <point x="365" y="639" type="line" smooth="yes"/>
      <point x="461" y="639"/>
      <point x="461" y="629"/>
      <point x="461" y="597" type="curve" smooth="yes"/>
      <point x="461" y="183" type="line"/>
      <point x="346" y="200"/>
      <point x="287" y="283"/>
      <point x="285" y="396" type="curve" smooth="yes"/>
      <point x="284" y="477"/>
      <point x="255" y="546"/>
      <point x="171" y="546" type="curve" smooth="yes"/>
      <point x="128" y="546" type="line" smooth="yes"/>
      <point x="112" y="546"/>
      <point x="97" y="546"/>
      <point x="97" y="529" type="curve" smooth="yes"/>
      <point x="97" y="520"/>
      <point x="104" y="514"/>
      <point x="111" y="513" type="curve" smooth="yes"/>
      <point x="185" y="505"/>
      <point x="186" y="433"/>
      <point x="187" y="395" type="curve" smooth="yes"/>
      <point x="189" y="336"/>
      <point x="220" y="166"/>
      <point x="461" y="148" type="curve"/>
      <point x="461" y="86" type="line" smooth="yes"/>
      <point x="461" y="55"/>
      <point x="461" y="44"/>
      <point x="365" y="44" type="curve" smooth="yes"/>
      <point x="322" y="44" type="line"/>
      <point x="322" y="0" type="line"/>
      <point x="383" y="4"/>
      <point x="449" y="4"/>
      <point x="510" y="4" type="curve" smooth="yes"/>
      <point x="571" y="4"/>
      <point x="637" y="4"/>
      <point x="698" y="0" type="curve"/>
      <point x="698" y="44" type="line"/>
      <point x="655" y="44" type="line" smooth="yes"/>
      <point x="559" y="44"/>
      <point x="559" y="54"/>
      <point x="559" y="86" type="curve" smooth="yes"/>
      <point x="559" y="148" type="line"/>
      <point x="647" y="154"/>
      <point x="707" y="178"/>
      <point x="759" y="220" type="curve" smooth="yes"/>
      <point x="815" y="266"/>
      <point x="839" y="346"/>
      <point x="840" y="397" type="curve" smooth="yes"/>
      <point x="840" y="419"/>
      <point x="842" y="505"/>
      <point x="909" y="513" type="curve" smooth="yes"/>
      <point x="917" y="514"/>
      <point x="930" y="515"/>
      <point x="930" y="529" type="curve" smooth="yes"/>
      <point x="930" y="546"/>
      <point x="916" y="546"/>
      <point x="900" y="546" type="curve" smooth="yes"/>
      <point x="856" y="546" type="line" smooth="yes"/>
      <point x="766" y="546"/>
      <point x="743" y="467"/>
      <point x="742" y="395" type="curve" smooth="yes"/>
      <point x="741" y="358"/>
      <point x="730" y="206"/>
      <point x="559" y="183" type="curve"/>
    </contour>
  </outline>
</glyph>
<glyph name="endash" format="2">
  <advance width="680"/>
  <unicode hex="2013"/>
  <outline>
    <contour>
      <point x="652" y="250" type="line"/>
      <point x="652" y="283" type="line"/>
      <point x="28" y="283" type="line"/>
      <point x="28" y="250" type="line"/>
    </contour>
  </outline>
</glyph>
<glyph name="quoteleft" format="2">
  <advance width="402"/>
  <unicode hex="2018"/>
  <outline>
    <contour>
      <point x="156" y="482" type="curve"/>
      <point x="156" y="551"/>
      <point x="185" y="617"/>
      <point x="238" y="660" type="curve" smooth="yes"/>
      <point x="250" y="669"/>
      <point x="251" y="670"/>
      <point x="251" y="677" type="curve" smooth="yes"/>
      <point x="251" y="686"/>
      <point x="241" y="694"/>
      <point x="234" y="694" type="curve" smooth="yes"/>
      <point x="219" y="694"/>
      <point x="123" y="616"/>
      <point x="123" y="491" type="curve" smooth="yes"/>
      <point x="123" y="426"/>
      <point x="153" y="378"/>
      <point x="201" y="378" type="curve" smooth="yes"/>
      <point x="240" y="378"/>
      <point x="262" y="408"/>
      <point x="262" y="439" type="curve" smooth="yes"/>
      <point x="262" y="470"/>
      <point x="240" y="500"/>
      <point x="201" y="500" type="curve" smooth="yes"/>
      <point x="173" y="500"/>
      <point x="157" y="483"/>
    </contour>
  </outline>
</glyph>
<glyph name="quoteright" format="2">
  <advance width="402"/>
  <unicode hex="2019"/>
  <outline>
    <contour>
      <point x="246" y="590" type="curve"/>
      <point x="246" y="521"/>
      <point x="217" y="455"/>
      <point x="164" y="412" type="curve" smooth="yes"/>
      <point x="152" y="403"/>
      <point x="151" y="402"/>
      <point x="151" y="395" type="curve" smooth="yes"/>
      <point x="151" y="386"/>
      <point x="161" y="378"/>
      <point x="168" y="378" type="curve" smooth="yes"/>
      <point x="183" y="378"/>
      <point x="279" y="456"/>
      <point x="279" y="581" type="curve" smooth="yes"/>
      <point x="279" y="646"/>
      <point x="249" y="694"/>
      <point x="201" y="694" type="curve" smooth="yes"/>
      <point x="162" y="694"/>
      <point x="140" y="664"/>
      <point x="140" y="633" type="curve" smooth="yes"/>
      <point x="140" y="602"/>
      <point x="162" y="572"/>
      <point x="201" y="572" type="curve" smooth="yes"/>
      <point x="229" y="572"/>
      <point x="245" y="589"/>
    </contour>
  </outline>
</glyph>
<glyph name="quotedblright" format="2">
  <advance width="680"/>
  <unicode hex="201D"/>
  <outline>
    <contour>
      <point x="176" y="590" type="curve"/>
      <point x="176" y="521"/>
      <point x="147" y="455"/>
      <point x="94" y="412" type="curve" smooth="yes"/>
      <point x="82" y="403"/>
      <point x="81" y="402"/>
      <point x="81" y="395" type="curve" smooth="yes"/>
      <point x="81" y="386"/>
      <point x="91" y="378"/>
      <point x="98" y="378" type="curve" smooth="yes"/>
      <point x="113" y="378"/>
      <point x="209" y="456"/>
      <point x="209" y="581" type="curve" smooth="yes"/>
      <point x="209" y="646"/>
      <point x="179" y="694"/>
      <point x="131" y="694" type="curve" smooth="yes"/>
      <point x="92" y="694"/>
      <point x="70" y="664"/>
      <point x="70" y="633" type="curve" smooth="yes"/>
      <point x="70" y="602"/>
      <point x="92" y="572"/>
      <point x="131" y="572" type="curve" smooth="yes"/>
      <point x="159" y="572"/>
      <point x="175" y="589"/>
    </contour>
    <contour>
      <point x="419" y="590" type="curve"/>
      <point x="419" y="521"/>
      <point x="390" y="455"/>
      <point x="337" y="412" type="curve" smooth="yes"/>
      <point x="325" y="403"/>
      <point x="324" y="402"/>
      <point x="324" y="395" type="curve" smooth="yes"/>
      <point x="324" y="386"/>
      <point x="334" y="378"/>
      <point x="341" y="378" type="curve" smooth="yes"/>
      <point x="356" y="378"/>
      <point x="452" y="456"/>
      <point x="452" y="581" type="curve" smooth="yes"/>
      <point x="452" y="646"/>
      <point x="422" y="694"/>
      <point x="374" y="694" type="curve" smooth="yes"/>
      <point x="335" y="694"/>
      <point x="313" y="664"/>
      <point x="313" y="633" type="curve" smooth="yes"/>
      <point x="313" y="602"/>
      <point x="335" y="572"/>
      <point x="374" y="572" type="curve" smooth="yes"/>
      <point x="402" y="572"/>
      <point x="418" y="589"/>
    </contour>
  </outline>
</glyph>
<glyph name="Omega" format="2">
  <advance width="958"/>
  <unicode hex="2126"/>
  <outline>
    <contour>
      <point x="873" y="176" type="line"/>
      <point x="831" y="176" type="line"/>
      <point x="829" y="168"/>
      <point x="819" y="119"/>
      <point x="810" y="99" type="curve" smooth="yes"/>
      <point x="804" y="87"/>
      <point x="800" y="79"/>
      <point x="736" y="79" type="curve" smooth="yes"/>
      <point x="640" y="79" type="line"/>
      <point x="656" y="120"/>
      <point x="675" y="151"/>
      <point x="737" y="221" type="curve" smooth="yes"/>
      <point x="797" y="289"/>
      <point x="860" y="361"/>
      <point x="860" y="454" type="curve" smooth="yes"/>
      <point x="860" y="592"/>
      <point x="694" y="705"/>
      <point x="479" y="705" type="curve" smooth="yes"/>
      <point x="261" y="705"/>
      <point x="97" y="591"/>
      <point x="97" y="454" type="curve" smooth="yes"/>
      <point x="97" y="362"/>
      <point x="158" y="291"/>
      <point x="220" y="221" type="curve" smooth="yes"/>
      <point x="277" y="156"/>
      <point x="300" y="123"/>
      <point x="317" y="79" type="curve"/>
      <point x="221" y="79" type="line" smooth="yes"/>
      <point x="157" y="79"/>
      <point x="153" y="87"/>
      <point x="147" y="99" type="curve" smooth="yes"/>
      <point x="138" y="119"/>
      <point x="128" y="168"/>
      <point x="126" y="176" type="curve"/>
      <point x="84" y="176" type="line"/>
      <point x="124" y="0" type="line"/>
      <point x="331" y="0" type="line" smooth="yes"/>
      <point x="352" y="0"/>
      <point x="361" y="0"/>
      <point x="361" y="24" type="curve" smooth="yes"/>
      <point x="361" y="98"/>
      <point x="322" y="173"/>
      <point x="282" y="250" type="curve" smooth="yes"/>
      <point x="247" y="319"/>
      <point x="214" y="382"/>
      <point x="214" y="454" type="curve" smooth="yes"/>
      <point x="214" y="590"/>
      <point x="339" y="672"/>
      <point x="478" y="672" type="curve" smooth="yes"/>
      <point x="621" y="672"/>
      <point x="743" y="589"/>
      <point x="743" y="454" type="curve" smooth="yes"/>
      <point x="743" y="382"/>
      <point x="710" y="318"/>
      <point x="672" y="245" type="curve" smooth="yes"/>
      <point x="637" y="178"/>
      <point x="596" y="99"/>
      <point x="596" y="24" type="curve" smooth="yes"/>
      <point x="596" y="0"/>
      <point x="605" y="0"/>
      <point x="627" y="0" type="curve" smooth="yes"/>
      <point x="833" y="0" type="line"/>
    </contour>
  </outline>
</glyph>
<glyph name="arrowup" format="2">
  <advance width="680"/>
  <unicode hex="2191"/>
  <outline>
    <contour>
      <point x="368" y="603" type="line"/>
      <point x="433" y="551"/>
      <point x="489" y="524"/>
      <point x="548" y="506" type="curve"/>
      <point x="548" y="550" type="line"/>
      <point x="477" y="571"/>
      <point x="406" y="612"/>
      <point x="340" y="693" type="curve"/>
      <point x="300" y="644"/>
      <point x="235" y="580"/>
      <point x="132" y="550" type="curve"/>
      <point x="132" y="506" type="line"/>
      <point x="191" y="524"/>
      <point x="248" y="551"/>
      <point x="312" y="603" type="curve"/>
      <point x="312" y="-154" type="line" smooth="yes"/>
      <point x="312" y="-169"/>
      <point x="312" y="-194"/>
      <point x="340" y="-194" type="curve" smooth="yes"/>
      <point x="368" y="-194"/>
      <point x="368" y="-169"/>
      <point x="368" y="-154" type="curve" smooth="yes"/>
    </contour>
  </outline>
</glyph>
<glyph name="arrowdown" format="2">
  <advance width="680"/>
  <unicode hex="2193"/>
  <outline>
    <contour>
      <point x="368" y="654" type="line" smooth="yes"/>
      <point x="368" y="669"/>
      <point x="368" y="694"/>
      <point x="340" y="694" type="curve" smooth="yes"/>
      <point x="312" y="694"/>
      <point x="312" y="669"/>
      <point x="312" y="654" type="curve" smooth="yes"/>
      <point x="312" y="-103" type="line"/>
      <point x="247" y="-51"/>
      <point x="191" y="-24"/>
      <point x="132" y="-6" type="curve"/>
      <point x="132" y="-50" type="line"/>
      <point x="203" y="-71"/>
      <point x="274" y="-112"/>
      <point x="340" y="-193" type="curve"/>
      <point x="380" y="-144"/>
      <point x="445" y="-80"/>
      <point x="548" y="-50" type="curve"/>
      <point x="548" y="-6" type="line"/>
      <point x="489" y="-24"/>
      <point x="432" y="-51"/>
      <point x="368" y="-103" type="curve"/>
    </contour>
  </outline>
</glyph>
<glyph name="Delta" format="2">
  <advance width="1097"/>
  <unicode hex="2206"/>
  <outline>
    <contour>
      <point x="588" y="693" type="line" smooth="yes"/>
      <point x="577" y="711"/>
      <point x="570" y="716"/>
      <point x="548" y="716" type="curve" smooth="yes"/>
      <point x="527" y="716"/>
      <point x="519" y="711"/>
      <point x="508" y="693" type="curve" smooth="yes"/>
      <point x="96" y="26" type="line" smooth="yes"/>
      <point x="89" y="15"/>
      <point x="89" y="14"/>
      <point x="89" y="11" type="curve" smooth="yes"/>
      <point x="89" y="0"/>
      <point x="98" y="0"/>
      <point x="114" y="0" type="curve" smooth="yes"/>
      <point x="982" y="0" type="line" smooth="yes"/>
      <point x="998" y="0"/>
      <point x="1007" y="0"/>
      <point x="1007" y="11" type="curve" smooth="yes"/>
      <point x="1007" y="14"/>
      <point x="1007" y="15"/>
      <point x="1000" y="26" type="curve" smooth="yes"/>
    </contour>
    <contour>
      <point x="512" y="615" type="line"/>
      <point x="835" y="91" type="line"/>
      <point x="188" y="91" type="line"/>
    </contour>
  </outline>
</glyph>
<glyph name="suppress" format="2">
  <advance width="402"/>
  <outline>
    <contour>
      <point x="356" y="350" type="line"/>
      <point x="345" y="392" type="line"/>
      <point x="62" y="323" type="line"/>
      <point x="72" y="280" type="line"/>
    </contour>
  </outline>
</glyph>
